<?xml version="1.0" encoding="UTF-8"?>
<svg version="1.1" xmlns="http://www.w3.org/2000/svg" width="512" height="512">
<path d="M0 0 C1.47893486 -0.01029488 1.47893486 -0.01029488 2.98774719 -0.02079773 C6.24336187 -0.03908255 9.49849543 -0.03522571 12.75415039 -0.02954102 C15.01949724 -0.03410201 17.28484271 -0.03940733 19.55018616 -0.04542542 C24.29718651 -0.05435985 29.04401865 -0.05192951 33.79101562 -0.04199219 C39.87194057 -0.03050244 45.95228485 -0.05071291 52.03313351 -0.07990932 C56.71118351 -0.09826213 61.38909413 -0.09798065 66.0671711 -0.0922718 C68.30904518 -0.09211848 70.55092864 -0.09817221 72.79276848 -0.11056328 C75.92862164 -0.12545354 79.06339907 -0.11480987 82.19921875 -0.09765625 C83.1235672 -0.10732422 84.04791565 -0.11699219 85.00027466 -0.12695312 C90.52719498 -0.06369856 93.86940392 0.58397365 98.16430664 4.40405273 C102.29063603 9.00338919 101.56545165 14.50554547 101.50488281 20.34472656 C101.50524442 21.46540622 101.50560602 22.58608587 101.50597858 23.74072552 C101.50374138 27.36436075 101.48090399 30.98753168 101.45727539 34.61108398 C101.45286396 36.84981056 101.44980378 39.08854022 101.44812012 41.32727051 C101.43239824 49.62374514 101.39051457 57.92015351 101.35180664 66.21655273 C101.28993164 84.75842773 101.22805664 103.30030273 101.16430664 122.40405273 C147.36430664 122.40405273 193.56430664 122.40405273 241.16430664 122.40405273 C241.16430664 111.84405273 241.16430664 101.28405273 241.16430664 90.40405273 C235.74637695 90.47366211 235.74637695 90.47366211 230.21899414 90.54467773 C226.71412562 90.57588802 223.20927268 90.60016755 219.7043457 90.6237793 C217.27165783 90.64387344 214.83901813 90.67115362 212.40649414 90.70581055 C208.90637309 90.75442334 205.40689162 90.77704412 201.90649414 90.79467773 C200.82189911 90.81532288 199.73730408 90.83596802 198.61984253 90.85723877 C192.65656856 90.85900404 188.73466044 90.66607818 184.16430664 86.40405273 C181.14948705 82.32948729 180.78196324 79.34428358 180.76025391 74.32226562 C180.74995903 73.28224144 180.74995903 73.28224144 180.73945618 72.22120667 C180.72122218 69.93949646 180.7250206 67.6584761 180.73071289 65.37670898 C180.72614933 63.78396889 180.72084323 62.19123076 180.71482849 60.59849548 C180.70590402 57.26382436 180.70831271 53.92939281 180.71826172 50.59472656 C180.72974889 46.32973303 180.70954112 42.06556777 180.68034458 37.80068302 C180.66196282 34.51231162 180.66227895 31.22413798 180.6679821 27.93572807 C180.66813509 26.3637113 180.66210967 24.79168093 180.64969063 23.21971321 C180.63474459 21.01769797 180.64548188 18.81720334 180.66259766 16.61523438 C180.66284691 14.73923302 180.66284691 14.73923302 180.6631012 12.82533264 C181.26920571 8.68800088 182.49794955 6.6030142 185.16430664 3.40405273 C188.79529609 0.79778883 191.2899563 0.0276155 195.73643494 0.01637268 C197.39974098 0.00151573 197.39974098 0.00151573 199.09664917 -0.01364136 C200.90699142 -0.00688889 200.90699142 -0.00688889 202.75390625 0 C204.03246994 -0.00686325 205.31103363 -0.0137265 206.62834167 -0.02079773 C210.12840974 -0.03871975 213.62822698 -0.03756262 217.12832713 -0.03185534 C220.05326212 -0.02876199 222.97814904 -0.03485759 225.90307719 -0.04089409 C232.80489172 -0.05493464 239.70658247 -0.05338208 246.60839844 -0.04199219 C253.72205588 -0.03051191 260.83533627 -0.04458588 267.94894403 -0.07138866 C274.06291541 -0.09356012 280.17676855 -0.1001798 286.29077727 -0.09431225 C289.93957363 -0.09094482 293.58812833 -0.09334318 297.23689079 -0.11056328 C301.30660681 -0.12893226 305.3755913 -0.11483064 309.4453125 -0.09765625 C311.25261841 -0.1121582 311.25261841 -0.1121582 313.09643555 -0.12695312 C319.2178009 -0.07280285 323.50923317 -0.03423781 328.16430664 4.40405273 C331.33057979 8.35368628 331.54679967 11.49843527 331.56835938 16.48583984 C331.57865425 17.52586403 331.57865425 17.52586403 331.5891571 18.5868988 C331.6073911 20.86860901 331.60359268 23.14962936 331.59790039 25.43139648 C331.60246395 27.02413658 331.60777005 28.61687471 331.61378479 30.20960999 C331.62270926 33.54428111 331.62030057 36.87871266 331.61035156 40.21337891 C331.59886439 44.47837244 331.61907216 48.7425377 331.6482687 53.00742245 C331.66665046 56.29579385 331.66633433 59.58396749 331.66063118 62.8723774 C331.6604782 64.44439417 331.66650361 66.01642454 331.67892265 67.58839226 C331.69386869 69.7904075 331.6831314 71.99090213 331.66601562 74.19287109 C331.66576637 76.06887245 331.66576637 76.06887245 331.66551208 77.98277283 C330.95021393 82.86547157 328.73712422 85.9599772 325.14208984 89.26074219 C320.35113592 91.10021396 315.60307953 90.76924786 310.51977539 90.69702148 C309.39485184 90.69277664 308.26992828 90.6885318 307.11091614 90.68415833 C303.52430102 90.66738964 299.93825143 90.62973962 296.35180664 90.59155273 C293.91756997 90.57650361 291.48332448 90.5628156 289.04907227 90.55053711 C283.0870915 90.52004624 277.12633078 90.46131871 271.16430664 90.40405273 C271.16430664 100.96405273 271.16430664 111.52405273 271.16430664 122.40405273 C273.8895459 122.38310547 276.61478516 122.3621582 279.42260742 122.34057617 C288.43107937 122.27426992 297.43956216 122.23010279 306.44821358 122.19680405 C311.90969892 122.17593758 317.37093405 122.14763675 322.83227539 122.10229492 C328.1037021 122.05880417 333.37488827 122.03490854 338.64648056 122.02454376 C340.65672466 122.01715824 342.66695574 122.00273598 344.67709732 121.98113251 C347.49489954 121.95205583 350.31171035 121.94809854 353.12963867 121.94995117 C353.95898422 121.93557007 354.78832977 121.92118896 355.64280701 121.90637207 C360.93812348 121.94399421 364.0266712 122.80075455 368.16430664 126.40405273 C372.503963 131.0933438 371.37013872 136.99312368 371.14648438 142.96777344 C371.09683684 145.4325212 371.05338923 147.89739929 371.01515198 150.36235046 C371.00465836 151.01560224 370.99416474 151.66885402 370.98335314 152.3419013 C370.56641058 180.6335861 373.47264227 207.50031495 378.82446289 235.25952148 C379.15831462 237.00367222 379.49204908 238.74784541 379.82566833 240.49204063 C381.19863696 247.65130736 382.58673963 254.80756334 383.99067307 261.96082211 C395.98580391 323.10596245 405.19331525 382.86562083 404.31946325 445.30026293 C404.28926621 447.46945683 404.26256396 449.63867325 404.2363472 451.80791855 C404.11770979 461.16742559 403.90806192 470.52099402 403.60961914 479.87670898 C403.57346056 481.06074184 403.53730198 482.2447747 403.50004768 483.46468735 C403.38917095 486.74171881 403.24878492 490.01577298 403.09448242 493.29101562 C403.06180802 494.23857821 403.02913363 495.1861408 402.99546909 496.16241741 C402.6886252 501.64347273 401.92811535 505.13758595 398.16430664 509.40405273 C393.9043137 512.68934593 390.04082116 512.82933333 384.85084629 512.78436947 C384.01281805 512.78902939 383.1747898 512.79368931 382.31136677 512.79849043 C379.49050621 512.81048439 376.67012339 512.80102806 373.84925842 512.79173279 C371.81156493 512.79590377 369.77387376 512.80137999 367.73618692 512.8080526 C362.12664387 512.82255673 356.51724712 512.81824699 350.90769589 512.81088579 C344.86192691 512.80616869 338.81619025 512.818651 332.77043152 512.8289032 C321.60774944 512.84512904 310.44511289 512.84753058 299.28242526 512.84259821 C288.97015757 512.83804377 278.6579073 512.83863679 268.34564018 512.84443855 C266.96319709 512.84519541 265.58075399 512.84595139 264.19831089 512.8467065 C262.1151797 512.84785167 260.03204852 512.84900155 257.94891734 512.85016574 C238.57784928 512.86087325 219.20678704 512.8655934 199.8357172 512.85769558 C199.10526562 512.85739841 198.37481405 512.85710123 197.62222757 512.85679505 C191.69017109 512.85434603 185.75811469 512.85173449 179.82605829 512.84911092 C156.68462979 512.83900759 133.54327385 512.84736449 110.40185547 512.87060547 C84.4104822 512.89666634 58.41915261 512.90952917 32.42776579 512.90241772 C29.65744015 512.90170164 26.88711451 512.90102726 24.11678886 512.90037727 C23.43464957 512.90020746 22.75251027 512.90003766 22.04970008 512.8998627 C11.74399905 512.89755788 1.43833851 512.90554542 -8.86735344 512.91866875 C-20.58496994 512.93356329 -32.30250768 512.93407026 -44.02012794 512.91659784 C-50.00158169 512.90805782 -55.98285376 512.90601137 -61.96429825 512.92124939 C-67.43623277 512.93501715 -72.90782863 512.93043571 -78.37974317 512.91101015 C-80.36286264 512.90722543 -82.34600873 512.91024261 -84.32910465 512.9206218 C-87.01861259 512.93370101 -89.70693586 512.92228978 -92.39639187 512.90462399 C-93.1717472 512.9142745 -93.94710253 512.92392501 -94.74595347 512.93386796 C-99.92037665 512.86377149 -102.838411 511.65178909 -106.83569336 508.40405273 C-110.64905544 503.96123947 -110.43891524 499.00161917 -110.65234375 493.40454102 C-110.700288 492.38391728 -110.74823225 491.36329355 -110.79762936 490.31174183 C-111.38998015 476.78320504 -111.68491119 463.24452574 -111.8685174 449.70502424 C-111.88826791 448.25683008 -111.90896927 446.80864857 -111.93063116 445.36048174 C-112.87368972 381.95122693 -103.31204232 321.3230473 -91.12705934 259.23661041 C-89.73263172 252.11712502 -88.35829814 244.99378607 -86.99531627 237.86821842 C-86.66340186 236.13464107 -86.3302741 234.40129557 -85.99590993 232.66818905 C-80.694541 205.14192829 -78.25412229 178.48133876 -78.77442932 150.45024109 C-78.79571207 149.19659697 -78.81699482 147.94295284 -78.8389225 146.6513195 C-78.8883042 144.33975094 -78.95937082 142.028494 -79.05704308 139.71846199 C-79.22276194 133.75324451 -79.13143449 129.98118657 -74.83569336 125.40405273 C-70.16364264 121.11442992 -64.1580616 122.026303 -58.19116211 122.11108398 C-57.06623856 122.11532883 -55.941315 122.11957367 -54.78230286 122.12394714 C-51.19568774 122.14071583 -47.60963815 122.17836585 -44.02319336 122.21655273 C-41.58895669 122.23160186 -39.1547112 122.24528987 -36.72045898 122.25756836 C-30.75867807 122.29061348 -24.79722612 122.34079545 -18.83569336 122.40405273 C-18.83938053 121.82721174 -18.8430677 121.25037075 -18.84686661 120.65604973 C-18.9352705 106.60903044 -19.00142857 92.56205294 -19.04294205 78.51481438 C-19.0635522 71.72160719 -19.09164283 64.9285859 -19.13745117 58.13549805 C-19.1816342 51.58030011 -19.20482879 45.0252228 -19.21520233 38.46988297 C-19.2225954 35.96841517 -19.23703218 33.46695798 -19.25861359 30.96557236 C-19.28763309 27.46289951 -19.29164981 23.96102559 -19.28979492 20.45825195 C-19.30417603 19.42319016 -19.31855713 18.38812836 -19.33337402 17.32170105 C-19.30018065 11.53228477 -18.91836746 7.86654218 -14.83569336 3.40405273 C-10.37933812 -0.45641064 -5.6061565 -0.02724275 0 0 Z " fill="#4F5561" transform="translate(109.835693359375,-0.404052734375)"/>
<path d="M0 0 C1.47893486 -0.01029488 1.47893486 -0.01029488 2.98774719 -0.02079773 C6.24336187 -0.03908255 9.49849543 -0.03522571 12.75415039 -0.02954102 C15.01949724 -0.03410201 17.28484271 -0.03940733 19.55018616 -0.04542542 C24.29718651 -0.05435985 29.04401865 -0.05192951 33.79101562 -0.04199219 C39.87194057 -0.03050244 45.95228485 -0.05071291 52.03313351 -0.07990932 C56.71118351 -0.09826213 61.38909413 -0.09798065 66.0671711 -0.0922718 C68.30904518 -0.09211848 70.55092864 -0.09817221 72.79276848 -0.11056328 C75.92862164 -0.12545354 79.06339907 -0.11480987 82.19921875 -0.09765625 C83.1235672 -0.10732422 84.04791565 -0.11699219 85.00027466 -0.12695312 C90.52719498 -0.06369856 93.86940392 0.58397365 98.16430664 4.40405273 C101.29064442 8.52979913 101.5865124 12.09102845 101.52507019 17.10456848 C101.52763346 17.8724649 101.53019674 18.64036131 101.53283769 19.43152732 C101.53777278 22.00046468 101.52128747 24.56881224 101.50488281 27.13769531 C101.50403648 28.98077378 101.5045118 30.82385327 101.50621033 32.66693115 C101.50707146 37.66863025 101.48942646 42.67011374 101.46848845 47.6717627 C101.44974144 52.89946543 101.44797277 58.12717303 101.44441223 63.35490417 C101.43508597 73.25354822 101.41046428 83.15209292 101.38036376 93.05069321 C101.34683788 104.32023009 101.33033829 115.5897717 101.31527746 126.85934603 C101.28391525 150.0409827 101.22889587 173.22248319 101.16430664 196.40405273 C116.01430664 196.40405273 130.86430664 196.40405273 146.16430664 196.40405273 C146.16430664 256.13405273 146.16430664 315.86405273 146.16430664 377.40405273 C61.68430664 377.40405273 -22.79569336 377.40405273 -109.83569336 377.40405273 C-108.71102391 362.78334988 -108.71102391 362.78334988 -107.62121582 356.85551453 C-107.443358 355.87140704 -107.443358 355.87140704 -107.2619071 354.86741859 C-106.87256671 352.72053013 -106.47420637 350.57542229 -106.07592773 348.43017578 C-105.79099021 346.86722374 -105.50677623 345.30413966 -105.22322083 343.74093628 C-104.61473863 340.38934504 -104.00320172 337.03833055 -103.3898468 333.68762779 C-102.40868651 328.31581745 -101.44723839 322.94058913 -100.49035645 317.56440735 C-100.32711899 316.64755572 -100.16388154 315.7307041 -99.9956975 314.7860691 C-99.49298141 311.9614936 -98.99050616 309.13687531 -98.48803711 306.31225586 C-96.43554379 294.77713313 -94.37052485 283.24481645 -92.24633789 271.72265625 C-90.18865735 260.54676878 -88.18329339 249.3624713 -86.24194336 238.16577148 C-86.00398293 236.79627609 -86.00398293 236.79627609 -85.76121521 235.39911413 C-80.83932112 206.91999807 -78.28891216 179.12831016 -78.80310059 150.22428894 C-78.82300552 148.98117384 -78.84291046 147.73805874 -78.86341858 146.45727348 C-78.90969109 144.17207449 -78.97732238 141.88715664 -79.07139587 139.60342598 C-79.22786666 133.67473273 -79.09118416 129.95897418 -74.83569336 125.40405273 C-70.16364264 121.11442992 -64.1580616 122.026303 -58.19116211 122.11108398 C-57.06623856 122.11532883 -55.941315 122.11957367 -54.78230286 122.12394714 C-51.19568774 122.14071583 -47.60963815 122.17836585 -44.02319336 122.21655273 C-41.58895669 122.23160186 -39.1547112 122.24528987 -36.72045898 122.25756836 C-30.75867807 122.29061348 -24.79722612 122.34079545 -18.83569336 122.40405273 C-18.83938053 121.82721174 -18.8430677 121.25037075 -18.84686661 120.65604973 C-18.9352705 106.60903044 -19.00142857 92.56205294 -19.04294205 78.51481438 C-19.0635522 71.72160719 -19.09164283 64.9285859 -19.13745117 58.13549805 C-19.1816342 51.58030011 -19.20482879 45.0252228 -19.21520233 38.46988297 C-19.2225954 35.96841517 -19.23703218 33.46695798 -19.25861359 30.96557236 C-19.28763309 27.46289951 -19.29164981 23.96102559 -19.28979492 20.45825195 C-19.30417603 19.42319016 -19.31855713 18.38812836 -19.33337402 17.32170105 C-19.30018065 11.53228477 -18.91836746 7.86654218 -14.83569336 3.40405273 C-10.37933812 -0.45641064 -5.6061565 -0.02724275 0 0 Z " fill="#6D7282" transform="translate(109.835693359375,-0.404052734375)"/>
<path d="M0 0 C84.48 0 168.96 0 256 0 C256 17.16 256 34.32 256 52 C261.92195313 51.96519531 267.84390625 51.93039062 273.9453125 51.89453125 C277.70053072 51.87919978 281.45571026 51.86475771 285.2109375 51.85351562 C291.16935252 51.83559321 297.12762902 51.81440737 303.0859375 51.77368164 C307.89051709 51.74104789 312.69494809 51.72313845 317.49962997 51.71536827 C319.33122979 51.70983199 321.16282162 51.69902093 322.99435806 51.68280983 C325.56298546 51.66098211 328.13100157 51.6580353 330.69970703 51.65942383 C331.45424667 51.648638 332.20878632 51.63785217 332.9861908 51.6267395 C338.43302832 51.65852834 342.60776067 52.76686447 346.64453125 56.53515625 C350.77135272 61.93176894 351.8202825 65.24406216 351 72 C348.29820537 77.3035228 344.70503105 81.09832298 339 83 C336.33777809 83.09116335 333.70229087 83.12603073 331.0402832 83.11352539 C329.82530655 83.11374443 329.82530655 83.11374443 328.58578491 83.1139679 C325.90742315 83.113271 323.22913087 83.10548903 320.55078125 83.09765625 C318.69418882 83.09579128 316.8375959 83.09436775 314.98100281 83.09336853 C310.09344119 83.0895496 305.20590926 83.07972461 300.31835938 83.06866455 C294.45464441 83.05663898 288.59091951 83.05204522 282.72719574 83.04621124 C273.81810984 83.03651255 264.9090891 83.01735161 256 83 C256 100.16 256 117.32 256 135 C224.63577897 135.08817605 193.2716775 135.16203484 161.90737122 135.20426132 C158.20484882 135.20926417 154.50232669 135.21444145 150.79980469 135.21972656 C150.0626967 135.2207758 149.32558872 135.22182505 148.56614412 135.22290608 C136.62971551 135.24031311 124.69336392 135.27185241 112.756981 135.30861118 C100.50988244 135.34601237 88.26282423 135.3682341 76.0156709 135.37635398 C68.45799399 135.38184348 60.9005348 135.39918377 53.34292491 135.43166587 C47.54851713 135.45530181 41.75424899 135.45782191 35.95980263 135.45243073 C33.58217464 135.45353276 31.20453855 135.46151037 28.82695961 135.4768219 C25.58386887 135.49668592 22.34171412 135.49195156 19.09860229 135.48101807 C18.15501511 135.49266943 17.21142793 135.5043208 16.2392472 135.51632524 C10.68190511 135.46558872 7.31443291 134.85215925 3 131 C-19.47220505 93.54632491 0 43.67811555 0 0 Z " fill="#4F5561" transform="translate(0,377)"/>
<path d="M0 0 C84.48 0 168.96 0 256 0 C256 126 256 126 252 132 C247.51863209 135.90411148 242.66527915 135.41286811 237.02165222 135.36076355 C236.00874266 135.36332682 234.99583311 135.3658901 233.95222932 135.36853105 C230.55417319 135.37347706 227.1565602 135.35696212 223.75854492 135.34057617 C221.32434093 135.33973008 218.89013617 135.34020469 216.45593262 135.34190369 C211.21323033 135.3425871 205.97062846 135.33407152 200.72795677 135.31719017 C193.14796518 135.29279858 185.56802773 135.28499474 177.98800115 135.2812262 C165.68964257 135.27466196 153.39134373 135.25470155 141.09301758 135.22631836 C129.14705707 135.19877707 117.2011128 135.17754384 105.25512695 135.16479492 C104.15041552 135.16361267 104.15041552 135.16361267 103.02338668 135.16240653 C99.32867435 135.15849139 95.63396191 135.15470027 91.9392494 135.15097082 C61.29278071 135.11987576 30.64642167 135.06457316 0 135 C0 117.84 0 100.68 0 83 C8.88292969 82.94392578 8.88292969 82.94392578 17.9453125 82.88671875 C21.70054975 82.85643704 25.45573973 82.82528787 29.2109375 82.79101562 C35.16924646 82.73671901 41.12746189 82.68560782 47.0859375 82.65356445 C51.8906715 82.62752451 56.69509089 82.58711703 61.49962997 82.53681374 C63.33116615 82.52014973 65.16275673 82.50863255 66.99435806 82.50238609 C69.56314193 82.49273993 72.13112178 82.46467487 74.69970703 82.43237305 C75.83151649 82.43452568 75.83151649 82.43452568 76.9861908 82.4367218 C81.72145065 82.35270047 84.97709176 81.50210857 89 79 C93.20098493 74.34485454 94.3543609 71.46964041 94.28515625 65.3203125 C93.734827 60.84229089 91.22085563 58.07287313 87.9375 55.1875 C83.78974516 52.64532768 79.74037107 52.83002372 75.0402832 52.79467773 C74.23029877 52.78477814 73.42031433 52.77487854 72.58578491 52.76467896 C69.90748013 52.73308191 67.22915761 52.7083136 64.55078125 52.68359375 C62.69418374 52.66302267 60.83759089 52.64202616 58.98100281 52.62062073 C54.09349344 52.56541593 49.20594192 52.5159996 44.31835938 52.46777344 C38.45459123 52.40871664 32.59090016 52.3424974 26.72719574 52.27747345 C17.81817755 52.17948395 8.90911002 52.09061419 0 52 C0 34.84 0 17.68 0 0 Z " fill="#37404B" transform="translate(256,377)"/>
<path d="M0 0 C1.47893486 -0.01029488 1.47893486 -0.01029488 2.98774719 -0.02079773 C6.24336187 -0.03908255 9.49849543 -0.03522571 12.75415039 -0.02954102 C15.01949724 -0.03410201 17.28484271 -0.03940733 19.55018616 -0.04542542 C24.29718651 -0.05435985 29.04401865 -0.05192951 33.79101562 -0.04199219 C39.87194057 -0.03050244 45.95228485 -0.05071291 52.03313351 -0.07990932 C56.71118351 -0.09826213 61.38909413 -0.09798065 66.0671711 -0.0922718 C68.30904518 -0.09211848 70.55092864 -0.09817221 72.79276848 -0.11056328 C75.92862164 -0.12545354 79.06339907 -0.11480987 82.19921875 -0.09765625 C83.1235672 -0.10732422 84.04791565 -0.11699219 85.00027466 -0.12695312 C90.52719498 -0.06369856 93.86940392 0.58397365 98.16430664 4.40405273 C101.29064442 8.52979913 101.5865124 12.09102845 101.52507019 17.10456848 C101.52763346 17.8724649 101.53019674 18.64036131 101.53283769 19.43152732 C101.53777278 22.00046468 101.52128747 24.56881224 101.50488281 27.13769531 C101.50403648 28.98077378 101.5045118 30.82385327 101.50621033 32.66693115 C101.50707146 37.66863025 101.48942646 42.67011374 101.46848845 47.6717627 C101.44974144 52.89946543 101.44797277 58.12717303 101.44441223 63.35490417 C101.43508597 73.25354822 101.41046428 83.15209292 101.38036376 93.05069321 C101.34056973 106.42723195 101.32436958 119.80379783 101.30685711 133.18038082 C101.27864365 154.25501254 101.21887792 175.32943463 101.16430664 196.40405273 C61.56430664 196.40405273 21.96430664 196.40405273 -18.83569336 196.40405273 C-18.9969055 149.75105157 -18.9969055 149.75105157 -19.03100586 130.22436523 C-19.05475467 116.73341806 -19.08269678 103.24257071 -19.13745117 89.75170898 C-19.17730681 79.92705401 -19.20312332 70.10247989 -19.21204734 60.27774632 C-19.21726422 55.07508595 -19.22953411 49.87265691 -19.25861359 44.67007065 C-19.28576245 39.77321718 -19.29413937 34.87669034 -19.28812408 29.97976875 C-19.28922455 28.18265699 -19.29718158 26.38553431 -19.31251526 24.58848763 C-19.33243526 22.13353201 -19.32762575 19.67980746 -19.31671143 17.224823 C-19.32836279 16.51469272 -19.34001416 15.80456243 -19.35201859 15.07291305 C-19.29198876 10.0730016 -17.93441705 7.27388138 -14.83569336 3.40405273 C-10.37933812 -0.45641064 -5.6061565 -0.02724275 0 0 Z " fill="#E2F4FE" transform="translate(109.835693359375,-0.404052734375)"/>
<path d="M0 0 C1.1088707 -0.00990463 2.21774139 -0.01980927 3.36021423 -0.03001404 C5.17055649 -0.02326157 5.17055649 -0.02326157 7.01747131 -0.01637268 C8.296035 -0.02323593 9.57459869 -0.03009918 10.89190674 -0.03717041 C14.39197481 -0.05509243 17.89179204 -0.0539353 21.39189219 -0.04822803 C24.31682719 -0.04513467 27.2417141 -0.05123027 30.16664225 -0.05726677 C37.06845679 -0.07130732 43.97014753 -0.06975476 50.8719635 -0.05836487 C57.98562094 -0.0468846 65.09890134 -0.06095856 72.2125091 -0.08776134 C78.32648047 -0.1099328 84.44033362 -0.11655248 90.55434233 -0.11068493 C94.2031387 -0.1073175 97.8516934 -0.10971587 101.50045586 -0.12693596 C105.57017188 -0.14530495 109.63915637 -0.13120332 113.70887756 -0.11402893 C115.51618347 -0.12853088 115.51618347 -0.12853088 117.36000061 -0.14332581 C123.48136597 -0.08917553 127.77279823 -0.05061049 132.4278717 4.38768005 C135.59414485 8.3373136 135.81036473 11.48206259 135.83192444 16.46946716 C135.83878769 17.16281662 135.84565094 17.85616608 135.85272217 18.57052612 C135.87095616 20.85223633 135.86715774 23.13325668 135.86146545 25.4150238 C135.86602902 27.0077639 135.87133511 28.60050203 135.87734985 30.1932373 C135.88627433 33.52790843 135.88386563 36.86233998 135.87391663 40.19700623 C135.86242945 44.46199976 135.88263722 48.72616502 135.91183376 52.99104977 C135.93021553 56.27942117 135.92989939 59.56759481 135.92419624 62.85600471 C135.92404326 64.42802149 135.93006867 66.00005186 135.94248772 67.57201958 C135.95743375 69.77403481 135.94669646 71.97452945 135.92958069 74.17649841 C135.92941452 75.42716599 135.92924835 76.67783356 135.92907715 77.96640015 C135.32297263 82.10373191 134.0942288 84.18871859 131.4278717 87.38768005 C127.79688226 89.99394396 125.30222204 90.76411729 120.85574341 90.77536011 C119.74687271 90.78526474 118.63800201 90.79516937 117.49552917 90.80537415 C116.28863434 90.8008725 115.0817395 90.79637085 113.83827209 90.79173279 C112.5597084 90.79859604 111.28114471 90.80545929 109.96383667 90.81253052 C106.4637686 90.83045254 102.96395136 90.82929541 99.46385121 90.82358813 C96.53891622 90.82049478 93.61402931 90.82659037 90.68910116 90.83262688 C83.78728662 90.84666743 76.88559587 90.84511487 69.98377991 90.83372498 C62.87012246 90.8222447 55.75684207 90.83631867 48.64323431 90.86312145 C42.52926294 90.88529291 36.41540979 90.89191258 30.30140108 90.88604504 C26.65260471 90.88267761 23.00405001 90.88507597 19.35528755 90.90229607 C15.28557153 90.92066505 11.21658704 90.90656342 7.14686584 90.88938904 C5.94199524 90.89905701 4.73712463 90.90872498 3.4957428 90.91868591 C-2.62562256 90.86453564 -6.91705483 90.8259706 -11.5721283 86.38768005 C-14.73840144 82.43804651 -14.95462133 79.29329752 -14.97618103 74.30589294 C-14.98304428 73.61254349 -14.98990753 72.91919403 -14.99697876 72.20483398 C-15.01521276 69.92312378 -15.01141434 67.64210342 -15.00572205 65.3603363 C-15.01028561 63.76759621 -15.01559171 62.17485808 -15.02160645 60.5821228 C-15.03053092 57.24745168 -15.02812223 53.91302013 -15.01817322 50.57835388 C-15.00668605 46.31336035 -15.02689381 42.04919508 -15.05609035 37.78431034 C-15.07447212 34.49593894 -15.07415598 31.2077653 -15.06845284 27.91935539 C-15.06829985 26.34733862 -15.07432526 24.77530825 -15.08674431 23.20334053 C-15.10169034 21.00132529 -15.09095305 18.80083066 -15.07383728 16.59886169 C-15.07367111 15.34819412 -15.07350494 14.09752655 -15.07333374 12.80895996 C-14.46722922 8.6716282 -13.23848539 6.58664152 -10.5721283 3.38768005 C-6.94113885 0.78141614 -4.44647864 0.01124282 0 0 Z " fill="#6D7282" transform="translate(305.57212829589844,-0.3876800537109375)"/>
<path d="M0 0 C9.9 0 19.8 0 30 0 C30 10.56 30 21.12 30 32 C32.72523926 31.97905273 35.45047852 31.95810547 38.25830078 31.93652344 C47.26677273 31.87021719 56.27525552 31.82605006 65.28390694 31.79275131 C70.74539228 31.77188485 76.20662741 31.74358401 81.66796875 31.69824219 C86.93939546 31.65475144 92.21058163 31.63085581 97.48217392 31.62049103 C99.49241802 31.6131055 101.5026491 31.59868325 103.51279068 31.57707977 C106.3305929 31.5480031 109.1474037 31.54404581 111.96533203 31.54589844 C112.79467758 31.53151733 113.62402313 31.51713623 114.47850037 31.50231934 C119.77381684 31.53994148 122.86236456 32.39670182 127 36 C130.03034872 39.82791525 130.3686462 42.71573606 130.34057617 47.53442383 C130.34034958 48.83539505 130.34012299 50.13636627 130.33988953 51.47676086 C130.32457184 52.88685453 130.30892389 54.29694465 130.29296875 55.70703125 C130.28736939 57.15719666 130.2831009 58.60736777 130.28010559 60.05754089 C130.26868347 63.86347279 130.23923945 67.66905803 130.20599365 71.47485352 C130.16982226 76.04701321 130.15611903 80.6192892 130.13863373 85.19155121 C130.1096 92.12794148 130.05209557 99.06357198 130 106 C120.1 106 110.2 106 100 106 C100 91.48 100 76.96 100 62 C35.65 62 -28.7 62 -95 62 C-95 76.52 -95 91.04 -95 106 C-109.85 106 -124.7 106 -140 106 C-140 81.58 -140 57.16 -140 32 C-93.8 32 -47.6 32 0 32 C0 21.44 0 10.88 0 0 Z " fill="#37404B" transform="translate(351,90)"/>
<path d="M0 0 C0.92885618 -0.00384115 1.85771235 -0.00768229 2.81471568 -0.01163983 C3.83687669 -0.01077335 4.85903769 -0.00990687 5.91217327 -0.00901413 C7.53900548 -0.01347081 7.53900548 -0.01347081 9.19870299 -0.01801753 C12.851385 -0.02672443 16.50403431 -0.02821446 20.15672588 -0.02970505 C22.76809033 -0.03433179 25.3794541 -0.03935625 27.99081707 -0.04475021 C35.09825192 -0.05833599 42.20568113 -0.0643586 49.3131268 -0.06876087 C53.75035583 -0.07152282 58.18758267 -0.07576009 62.62481022 -0.08026505 C74.90827103 -0.09245792 87.1917301 -0.10275727 99.47519684 -0.10614014 C100.65460162 -0.10646949 100.65460162 -0.10646949 101.85783277 -0.10680549 C102.64599188 -0.10702377 103.43415099 -0.10724204 104.24619371 -0.10746694 C105.84332423 -0.1079104 107.44045474 -0.10835697 109.03758526 -0.10880661 C110.225935 -0.10913875 110.225935 -0.10913875 111.43829181 -0.10947761 C124.27659546 -0.113426 137.11484236 -0.13088118 149.95312408 -0.15416613 C163.13145491 -0.17787507 176.30975726 -0.19034177 189.48810977 -0.19150805 C196.8883032 -0.19242506 204.28842269 -0.19818384 211.68859577 -0.21632767 C218.64805512 -0.23333073 225.60737187 -0.23498469 232.56684589 -0.22618866 C235.12346046 -0.225416 237.68008244 -0.22979095 240.23667812 -0.23964691 C243.72251016 -0.25229877 247.20783931 -0.24652603 250.69366741 -0.23606491 C251.70913625 -0.24412132 252.72460509 -0.25217772 253.77084571 -0.26047826 C259.84437852 -0.21774898 264.49348764 0.33103843 269.13792706 4.66658401 C273.26474852 10.0631967 274.31367831 13.37548992 273.49339581 20.13142776 C270.79160117 25.43495057 267.19842685 29.22975075 261.49339581 31.13142776 C259.99435769 31.22469576 258.49151801 31.26230396 256.98958492 31.26564884 C255.59722571 31.27233561 255.59722571 31.27233561 254.17673802 31.27915746 C252.6445197 31.27888092 252.6445197 31.27888092 251.08134747 31.27859879 C249.99749822 31.28227547 248.91364898 31.28595216 247.79695582 31.28974026 C244.14661078 31.30079825 240.49629418 31.30462452 236.84593487 31.30842972 C234.23619273 31.31469271 231.62645149 31.32133937 229.01671124 31.32834244 C221.17211041 31.34810389 213.32750831 31.3581724 205.48288882 31.36707023 C201.78889833 31.37145343 198.09490927 31.37682013 194.40091991 31.3820591 C182.12175195 31.39907064 169.84258488 31.4135651 157.56340694 31.42080784 C154.37698395 31.42271774 151.19056096 31.42463807 148.00413799 31.42659378 C146.81618172 31.42731939 146.81618172 31.42731939 145.60422632 31.42805966 C132.77304636 31.43636107 119.94195959 31.46170017 107.11082032 31.49417446 C93.93813511 31.52724146 80.76549727 31.54525625 67.59277034 31.54845208 C60.19643007 31.55061745 52.80022572 31.55937008 45.4039259 31.58491325 C38.4468965 31.60888392 31.49011554 31.61244818 24.5330534 31.60215187 C21.97846698 31.60165514 19.42386873 31.60801567 16.86931896 31.62170792 C13.38371007 31.63934648 9.89898756 31.63235928 6.41337872 31.61917496 C5.40082272 31.6301442 4.38826672 31.64111345 3.34502721 31.6524151 C-2.81933878 31.5960633 -6.47015436 30.75444956 -11.50660419 27.13142776 C-15.71366564 22.48151775 -16.86686947 19.60114864 -16.78785419 13.44783401 C-16.20783654 8.67074414 -13.38218142 5.92158282 -9.94410419 2.81892776 C-6.5589174 0.47533691 -4.01424257 0.00622625 0 0 Z " fill="#E2F4FE" transform="translate(77.50660419464111,428.8685722351074)"/>
<path d="M0 0 C64.35 0 128.7 0 195 0 C195 14.52 195 29.04 195 44 C130.65 44 66.3 44 0 44 C0 29.48 0 14.96 0 0 Z " fill="#ABD123" transform="translate(256,152)"/>
<path d="M0 0 C0.99753296 0.00302124 1.99506592 0.00604248 3.02282715 0.00915527 C6.73798007 0.02481436 10.45298514 0.06669833 14.16796875 0.10546875 C22.47984375 0.16734375 30.79171875 0.22921875 39.35546875 0.29296875 C39.35546875 24.71296875 39.35546875 49.13296875 39.35546875 74.29296875 C19.55546875 74.29296875 -0.24453125 74.29296875 -20.64453125 74.29296875 C-20.80496649 58.3118365 -20.80496649 58.3118365 -20.83984375 51.48046875 C-20.8637216 46.82565998 -20.89191702 42.17116704 -20.94628906 37.51660156 C-20.98986744 33.7623868 -21.01369344 30.00851089 -21.02404022 26.25406265 C-21.03141023 24.82434889 -21.04580239 23.39465292 -21.06745148 21.96508408 C-21.09663885 19.95721394 -21.09816645 17.94900018 -21.09863281 15.94091797 C-21.10751526 14.79952362 -21.11639771 13.65812927 -21.12554932 12.48214722 C-20.41128002 7.74649921 -18.10811321 4.63675008 -14.62231445 1.4362793 C-9.8315226 -0.40313025 -5.08345521 -0.07253648 0 0 Z " fill="#4F5561" transform="translate(51.64453125,121.70703125)"/>
<path d="M0 0 C14.85 0 29.7 0 45 0 C45 24.42 45 48.84 45 74 C30.15 74 15.3 74 0 74 C0 49.58 0 25.16 0 0 Z " fill="#4F5561" transform="translate(211,122)"/>
<path d="M0 0 C33.784685 -0.06865552 67.56935266 -0.12152339 101.35409192 -0.15319599 C105.34201843 -0.15694814 109.32994479 -0.16083111 113.31787109 -0.16479492 C114.50876559 -0.16597532 114.50876559 -0.16597532 115.72371857 -0.16717956 C128.58160765 -0.18023611 141.43945653 -0.20389133 154.29732175 -0.23145839 C167.48911298 -0.25950565 180.68088314 -0.27617482 193.87270296 -0.28226548 C202.01381434 -0.28638334 210.15481207 -0.29939272 218.29588847 -0.3237494 C224.53680398 -0.34147084 230.77763271 -0.34336733 237.01856995 -0.33932304 C239.58002294 -0.34014983 242.14148016 -0.3461364 244.70290756 -0.35761642 C248.19545927 -0.37250464 251.68752159 -0.36896659 255.18008423 -0.36076355 C256.70635703 -0.37387134 256.70635703 -0.37387134 258.26346362 -0.38724393 C264.34373286 -0.34854687 268.99456217 0.19444877 273.64453125 4.53515625 C277.77135272 9.93176894 278.8202825 13.24406216 278 20 C275.29820537 25.3035228 271.70503105 29.09832298 266 31 C264.4943406 31.08998222 262.98498156 31.12375764 261.47663593 31.12304783 C260.54407956 31.12503888 259.6115232 31.12702993 258.65070754 31.12908131 C257.62445382 31.12616847 256.5982001 31.12325563 255.54084778 31.12025452 C253.90766547 31.12153615 253.90766547 31.12153615 252.24148959 31.12284368 C248.57479495 31.1244974 244.90814554 31.11897884 241.24145508 31.11352539 C238.62035625 31.11324347 235.99925735 31.11340135 233.37815857 31.1139679 C227.72566569 31.11449271 222.07318433 31.11135033 216.42069435 31.10573006 C208.24810378 31.09760933 200.07551879 31.09499925 191.90292462 31.09374207 C178.64402015 31.09155245 165.38512183 31.08489481 152.1262207 31.07543945 C139.24503612 31.066263 126.36385321 31.05918331 113.48266602 31.05493164 C112.29203704 31.05453756 112.29203704 31.05453756 111.07735495 31.05413551 C107.09540391 31.05283049 103.11345285 31.05156678 99.13150179 31.05032361 C66.08766339 31.03995381 33.04383252 31.02233794 0 31 C0 30.67 0 30.34 0 30 C60.39 30 120.78 30 183 30 C183 20.43 183 10.86 183 1 C122.61 1 62.22 1 0 1 C0 0.67 0 0.34 0 0 Z " fill="#BFD8EA" transform="translate(73,429)"/>
<path d="M0 0 C29.7 0 59.4 0 90 0 C90 9.9 90 19.8 90 30 C60.3 30 30.6 30 0 30 C0 20.1 0 10.2 0 0 Z " fill="#7DBEFF" transform="translate(321,30)"/>
<path d="M0 0 C1.11069351 -0.0038269 2.22138702 -0.00765381 3.36573792 -0.01159668 C5.71168933 -0.01431535 8.05767107 -0.00695745 10.40356445 0.00976562 C13.98783255 0.03115408 17.57009146 0.00997119 21.15429688 -0.015625 C23.43620233 -0.01298132 25.71810654 -0.00785552 28 0 C29.06890976 -0.00809692 30.13781952 -0.01619385 31.23912048 -0.02453613 C37.33671242 0.05200434 40.93186787 0.45229644 45.56640625 4.53125 C49.23738199 8.68524886 50.23166793 11.95325121 49.94140625 17.359375 C49.2098885 21.59608195 47.21335195 24.17008009 43.94483948 26.8714447 C38.3019773 30.76642452 33.71979169 31.25507886 26.96875 31.16015625 C25.97565323 31.16256821 24.98255646 31.16498016 23.95936584 31.16746521 C21.87090032 31.16649047 19.78240776 31.1531865 17.6940918 31.12817383 C14.50935632 31.09380881 11.32739107 31.10755001 8.14257812 31.12695312 C6.10545702 31.12005523 4.06834303 31.11038336 2.03125 31.09765625 C1.08628159 31.10261612 0.14131317 31.10757599 -0.83229065 31.11268616 C-6.88273294 31.0055809 -10.47594532 30.05556608 -15.43359375 26.53125 C-19.64065519 21.88133999 -20.79385903 19.00097087 -20.71484375 12.84765625 C-20.16361169 8.30764778 -17.45498415 5.66104603 -14.50366211 2.39648438 C-9.8209166 -0.44853954 -5.37931447 -0.04067095 0 0 Z " fill="#C3DEF1" transform="translate(401.43359375,429.46875)"/>
<path d="M0 0 C9.9 0 19.8 0 30 0 C30 10.56 30 21.12 30 32 C20.1 32 10.2 32 0 32 C0 21.44 0 10.88 0 0 Z " fill="#4F5561" transform="translate(351,90)"/>
<path d="M0 0 C4.36492736 2.40706674 5.93942071 4.83284673 7.8125 9.4375 C8.54520346 14.47483626 7.62027557 18.24512573 5.20703125 22.63671875 C1.89427009 26.91454198 -2.56531496 28.20982491 -7.75 28.9375 C-11.90567414 28.33303831 -15.0494453 27.21048398 -18.1875 24.4375 C-21.62339266 19.77883377 -23.03044428 15.23274192 -22.1875 9.4375 C-20.42898855 4.50534364 -17.74068059 1.40845153 -13.0390625 -0.90234375 C-8.34602817 -2.57559861 -4.45447532 -1.90552555 0 0 Z " fill="#C3DEF2" transform="translate(428.1875,303.5625)"/>
<path d="M0 0 C4.36492736 2.40706674 5.93942071 4.83284673 7.8125 9.4375 C8.54520346 14.47483626 7.62027557 18.24512573 5.20703125 22.63671875 C1.89427009 26.91454198 -2.56531496 28.20982491 -7.75 28.9375 C-11.90567414 28.33303831 -15.0494453 27.21048398 -18.1875 24.4375 C-21.62339266 19.77883377 -23.03044428 15.23274192 -22.1875 9.4375 C-20.42898855 4.50534364 -17.74068059 1.40845153 -13.0390625 -0.90234375 C-8.34602817 -2.57559861 -4.45447532 -1.90552555 0 0 Z " fill="#C3DEF2" transform="translate(373.1875,303.5625)"/>
<path d="M0 0 C4.36492736 2.40706674 5.93942071 4.83284673 7.8125 9.4375 C8.54520346 14.47483626 7.62027557 18.24512573 5.20703125 22.63671875 C1.89427009 26.91454198 -2.56531496 28.20982491 -7.75 28.9375 C-11.90567414 28.33303831 -15.0494453 27.21048398 -18.1875 24.4375 C-21.62339266 19.77883377 -23.03044428 15.23274192 -22.1875 9.4375 C-20.42898855 4.50534364 -17.74068059 1.40845153 -13.0390625 -0.90234375 C-8.34602817 -2.57559861 -4.45447532 -1.90552555 0 0 Z " fill="#C3DEF2" transform="translate(318.1875,303.5625)"/>
<path d="M0 0 C4.36492736 2.40706674 5.93942071 4.83284673 7.8125 9.4375 C8.54520346 14.47483626 7.62027557 18.24512573 5.20703125 22.63671875 C1.89427009 26.91454198 -2.56531496 28.20982491 -7.75 28.9375 C-11.90567414 28.33303831 -15.0494453 27.21048398 -18.1875 24.4375 C-21.62339266 19.77883377 -23.03044428 15.23274192 -22.1875 9.4375 C-20.42898855 4.50534364 -17.74068059 1.40845153 -13.0390625 -0.90234375 C-8.34602817 -2.57559861 -4.45447532 -1.90552555 0 0 Z " fill="#F6565A" transform="translate(428.1875,243.5625)"/>
<path d="M0 0 C4.36492736 2.40706674 5.93942071 4.83284673 7.8125 9.4375 C8.54520346 14.47483626 7.62027557 18.24512573 5.20703125 22.63671875 C1.9113554 26.89247944 -2.54684459 28.17382324 -7.6875 29 C-12.37661747 28.24639184 -15.64727219 26.60297396 -19.1875 23.4375 C-21.97287223 18.73718437 -22.86540686 14.86075487 -22.1875 9.4375 C-20.44294414 4.504976 -17.73316107 1.40475576 -13.0390625 -0.90234375 C-8.34602817 -2.57559861 -4.45447532 -1.90552555 0 0 Z " fill="#4F7AE6" transform="translate(373.1875,243.5625)"/>
<path d="M0 0 C4.36492736 2.40706674 5.93942071 4.83284673 7.8125 9.4375 C8.54520346 14.47483626 7.62027557 18.24512573 5.20703125 22.63671875 C1.89427009 26.91454198 -2.56531496 28.20982491 -7.75 28.9375 C-11.90567414 28.33303831 -15.0494453 27.21048398 -18.1875 24.4375 C-21.62339266 19.77883377 -23.03044428 15.23274192 -22.1875 9.4375 C-20.42898855 4.50534364 -17.74068059 1.40845153 -13.0390625 -0.90234375 C-8.34602817 -2.57559861 -4.45447532 -1.90552555 0 0 Z " fill="#AACF24" transform="translate(318.1875,243.5625)"/>
</svg>
