<?xml version="1.0" encoding="UTF-8"?>
<svg version="1.1" xmlns="http://www.w3.org/2000/svg" width="512" height="512">
<path d="M0 0 C0.84232178 -0.00626404 1.68464355 -0.01252808 2.55249023 -0.01898193 C17.62512755 -0.08977476 32.75101987 1.08578738 47.0625 6.1875 C47.80048828 6.44354004 48.53847656 6.69958008 49.29882812 6.96337891 C70.06330062 14.43264601 85.00274061 27.72637545 94.75 47.4375 C98.96720279 57.59372212 100.91798982 67.8512474 100.82348633 78.82128906 C100.78219201 89.59451726 102.36102074 96.45216382 108.515625 105.23828125 C115.05070385 114.59532597 115.815362 124.37750477 114.75 135.4375 C112.81447416 145.22965733 108.08961956 154.09206721 100.1875 160.3125 C97.45172749 163.1477011 97.45172749 163.1477011 97.7890625 166.2578125 C98.30128671 169.36938346 98.98915797 172.37819803 99.75 175.4375 C101.06898822 181.36415374 100.86083514 187.27432509 100.8125 193.3125 C100.80798828 194.38242188 100.80347656 195.45234375 100.79882812 196.5546875 C100.78709749 199.18234986 100.77068228 201.80989538 100.75 204.4375 C101.35287842 204.71730713 101.95575684 204.99711426 102.5769043 205.28540039 C105.72511548 206.95447224 108.06906917 209.37488437 110.5625 211.875 C111.09077393 212.40270996 111.61904785 212.93041992 112.16333008 213.47412109 C120.45052182 221.9935217 125.04440474 229.72686826 125.06689453 241.56274414 C124.86833701 253.28866909 120.96174401 264.37106885 113.16015625 273.24609375 C107.71106425 278.38747232 100.66562243 281.66080753 93.125 281.6875 C92.01125 281.605 90.8975 281.5225 89.75 281.4375 C89.50299095 282.39808067 89.50299095 282.39808067 89.25099182 283.37806702 C87.2546548 290.93658464 84.8383505 298.29967009 82.27734375 305.68359375 C81.83766248 306.95946109 81.39828888 308.23543449 80.959198 309.51150513 C79.78377309 312.92460711 78.60400335 316.336192 77.42334366 319.74748611 C76.17838562 323.34698105 74.9374852 326.94787464 73.69604492 330.54858398 C70.94883385 338.51402868 68.19560294 346.4773846 65.44087219 354.44023132 C64.38042666 357.50591361 63.32060537 360.57181166 62.26074219 363.63769531 C58.94034051 373.24149238 55.61693495 382.8442424 52.28918457 392.44549561 C48.8078938 402.48980229 45.33352366 412.53645939 41.8671875 422.5859375 C34.65725354 443.48707819 27.44689658 464.3877573 20.125 485.25 C19.85037933 486.03365936 19.57575867 486.81731873 19.29281616 487.62472534 C18.53790526 489.77770899 17.78109467 491.93001274 17.0234375 494.08203125 C16.39574463 495.86637573 16.39574463 495.86637573 15.75537109 497.68676758 C14.75 500.4375 14.75 500.4375 13.75 502.4375 C4.51 502.4375 -4.73 502.4375 -14.25 502.4375 C-19.54611563 488.2575775 -24.55596542 473.99567926 -29.46688843 459.67822266 C-31.45474305 453.88292553 -33.44783325 448.08943169 -35.44144249 442.29611206 C-35.88918664 440.99496846 -36.33686049 439.69380067 -36.78446388 438.39260864 C-40.50426802 427.58006911 -44.26230864 416.78129976 -48.04321289 405.98999023 C-54.0701978 388.7876623 -59.97350924 371.54574248 -65.81872559 354.28082275 C-69.69453969 342.83428738 -73.59480324 331.39774059 -77.58984375 319.9921875 C-77.93782013 318.99850159 -78.28579651 318.00481567 -78.64431763 316.98101807 C-80.29193378 312.28074463 -81.94514669 307.58251839 -83.60546875 302.88671875 C-84.19405021 301.21355566 -84.78259403 299.54037934 -85.37109375 297.8671875 C-85.63486313 297.12677216 -85.89863251 296.38635681 -86.1703949 295.62350464 C-87.81296051 290.94292064 -89.10991575 286.26597234 -90.25 281.4375 C-91.508125 281.251875 -92.76625 281.06625 -94.0625 280.875 C-104.19375571 278.58113078 -112.294414 271.73471413 -118.25 263.4375 C-124.33048209 253.30853367 -126.62640419 243.24233597 -125.25 231.4375 C-122.33056255 223.35631953 -115.1271993 214.96205675 -108.20507812 209.9597168 C-103.86467541 206.74521722 -103.86467541 206.74521722 -101.57861328 202.01245117 C-101.37898406 199.19093841 -101.39852188 196.45155416 -101.5 193.625 C-101.48456823 185.92331225 -101.08120847 178.76075008 -99.3125 171.25 C-99.14202148 170.51483154 -98.97154297 169.77966309 -98.79589844 169.0222168 C-97.95313977 165.61452294 -97.00755794 162.48761176 -95.25 159.4375 C-96.11625 159.355 -96.9825 159.2725 -97.875 159.1875 C-104.45428369 157.72543696 -108.00211322 153.88165346 -111.953125 148.73046875 C-117.21947611 139.41917928 -116.69917527 125.88801503 -114.41015625 115.69921875 C-112.79211457 111.23734623 -110.96001158 107.41843706 -108.171875 103.56640625 C-101.55261842 94.41135533 -101.4841524 87.08404217 -101.36328125 76.03515625 C-101.14322525 56.46331034 -93.23041552 39.14373959 -79.9453125 24.98046875 C-58.36112309 4.21010943 -28.63840201 0.0998891 0 0 Z " fill="#D84861" transform="translate(130.25,4.5625)"/>
<path d="M0 0 C21.07088419 16.53887837 34.36129329 39.49240147 38.234375 65.9453125 C38.87195393 72.79529178 38.78389943 79.6681407 38.75195312 86.54077148 C38.75738892 88.53541064 38.76451967 90.53004576 38.77319336 92.52467346 C38.79124815 97.88378175 38.78443604 103.24257807 38.77167702 108.60169101 C38.76146582 114.23658945 38.77096412 119.87146329 38.77722168 125.50636292 C38.78447044 134.95668277 38.77497911 144.406877 38.75585938 153.85717773 C38.73405186 164.76147912 38.7411814 175.66548172 38.763165 186.569776 C38.78134554 195.96643732 38.78386565 205.36300901 38.77341032 214.75968224 C38.76719567 220.35733409 38.76628465 225.95484565 38.77955627 231.55248833 C38.79115445 236.80997214 38.78301669 242.06707185 38.75997925 247.32451439 C38.75471523 249.24690871 38.75616613 251.16933567 38.76502991 253.09171677 C38.82542587 267.52653292 37.67420415 279.00933306 27.234375 289.9453125 C14.74741402 301.86575729 1.32679503 301.47749246 -14.953125 301.1953125 C-16.97459167 301.17521614 -18.99607764 301.15697092 -21.01757812 301.140625 C-25.9340761 301.09687957 -30.84963451 301.02802508 -35.765625 300.9453125 C-35.72347335 301.67546664 -35.6813217 302.40562078 -35.63789272 303.15790081 C-34.6101728 320.97055943 -33.59210002 338.78374582 -32.5846014 356.59755993 C-32.0971419 365.21236943 -31.60648653 373.82697414 -31.1081543 382.44116211 C-30.67353099 389.95421904 -30.24505996 397.46759802 -29.82380015 404.98141652 C-29.60078813 408.95541852 -29.37481666 412.92919964 -29.14146233 416.90260887 C-28.92134016 420.6523758 -28.70952701 424.40252532 -28.50372887 428.15310478 C-28.3912366 430.16554247 -28.27025318 432.17750009 -28.14889526 434.18942261 C-27.39179791 448.30646965 -27.17243117 461.09141664 -36.8125 472.33203125 C-44.80918624 480.00261149 -52.90151341 482.57721279 -63.86572266 482.4140625 C-73.23891256 481.98750349 -79.9741873 478.80154973 -86.71875 472.33203125 C-97.24740157 460.05530204 -96.06522019 445.51025294 -95.14477539 430.25073242 C-95.06536722 428.83015484 -94.98672067 427.40953452 -94.9087677 425.98887634 C-94.69738886 422.17525244 -94.47551427 418.36230682 -94.2515862 414.549402 C-94.01847007 410.54861037 -93.79523875 406.54726682 -93.57090759 402.54597473 C-93.14570484 394.98823584 -92.71176017 387.43102596 -92.27458328 379.87397128 C-91.77683453 371.26237028 -91.28896971 362.65021797 -90.80188763 354.03800809 C-89.80070836 336.33981241 -88.78727071 318.64233795 -87.765625 300.9453125 C-89.01061768 300.96625977 -90.25561035 300.98720703 -91.53833008 301.00878906 C-96.20308716 301.08175549 -100.86779487 301.12731638 -105.53295898 301.16503906 C-107.54346224 301.18502643 -109.55390833 301.21222576 -111.56420898 301.24707031 C-126.90494499 301.50611428 -139.09994573 301.081736 -150.765625 289.9453125 C-161.99962609 278.17741829 -162.3541499 265.64259987 -162.28320312 250.25561523 C-162.28863104 248.27336617 -162.29575745 246.29112114 -162.30444336 244.30888367 C-162.32260822 238.94889179 -162.3156352 233.5892095 -162.30292702 228.22921252 C-162.29275394 222.59754819 -162.30220553 216.96590922 -162.30847168 211.33424377 C-162.31573976 201.87146281 -162.30618677 192.40880688 -162.28710938 182.94604492 C-162.26538641 172.0460047 -162.27236218 161.14626434 -162.294415 150.2462315 C-162.31264571 140.85554665 -162.3150887 131.46495142 -162.30466032 122.07425457 C-162.29846169 116.48018783 -162.29748789 110.88626133 -162.31080627 105.2922039 C-162.32247469 100.02330148 -162.31414104 94.7547799 -162.29122925 89.48591805 C-162.28599836 87.56646986 -162.28735773 85.6469889 -162.29627991 83.72755432 C-162.42151243 54.01576397 -153.21863238 28.91169567 -132.23828125 7.34765625 C-95.85347061 -27.22058528 -39.89367512 -29.63852135 0 0 Z " fill="#D84861" transform="translate(468.765625,25.0546875)"/>
<path d="M0 0 C0.84232178 -0.00626404 1.68464355 -0.01252808 2.55249023 -0.01898193 C17.62512755 -0.08977476 32.75101987 1.08578738 47.0625 6.1875 C47.80048828 6.44354004 48.53847656 6.69958008 49.29882812 6.96337891 C70.06330062 14.43264601 85.00274061 27.72637545 94.75 47.4375 C98.96720279 57.59372212 100.91798982 67.8512474 100.82348633 78.82128906 C100.78219201 89.59451726 102.36102074 96.45216382 108.515625 105.23828125 C115.05070385 114.59532597 115.815362 124.37750477 114.75 135.4375 C113.054804 144.01378745 109.2201187 150.70226574 103.75 157.4375 C103.28851563 158.02402344 102.82703125 158.61054688 102.3515625 159.21484375 C98.14694447 163.99060931 92.58716512 166.17477869 86.75 168.4375 C85.80640625 168.80617187 84.8628125 169.17484375 83.890625 169.5546875 C75.46330767 171.92356028 65.07260266 171.58935418 57.15234375 167.8203125 C51.55021013 164.59566973 46.2625771 160.93168385 40.99511719 157.19140625 C23.23067884 144.61582751 6.12216744 138.89418512 -15.76196289 142.21069336 C-28.4881173 144.50256262 -40.53277478 149.27805396 -52.58520508 153.84057617 C-63.15906382 157.83033559 -72.8309184 160.83759843 -84.25 160.75 C-85.02964111 160.74436035 -85.80928223 160.7387207 -86.61254883 160.73291016 C-95.18045115 160.55268353 -102.37397051 159.24330855 -108.78125 153.18359375 C-116.35947501 144.17437412 -115.96148886 133.04189108 -115.46777344 121.89453125 C-114.85924381 115.02878888 -112.17849541 109.10186865 -108.171875 103.56640625 C-101.55261842 94.41135533 -101.4841524 87.08404217 -101.36328125 76.03515625 C-101.14322525 56.46331034 -93.23041552 39.14373959 -79.9453125 24.98046875 C-58.36112309 4.21010943 -28.63840201 0.0998891 0 0 Z " fill="#3278AF" transform="translate(130.25,4.5625)"/>
<path d="M0 0 C9.30651837 7.22255714 11.74092005 21.46316505 14.16796875 32.42407227 C17.98463012 49.4631403 17.98463012 49.4631403 25.04296875 65.36157227 C29.12218477 67.7611111 33.43492517 68.07549451 38.04296875 67.36157227 C49.15178535 64.47023644 55.72218407 53.99933135 62.54125977 45.49243164 C71.34613354 34.79327648 82.42907701 29.69386538 96.04296875 28.36157227 C98.37604429 28.32688829 100.71006346 28.31688059 103.04296875 28.36157227 C100.92841598 36.58474684 98.35178229 44.58810084 95.5703125 52.60766602 C95.13063123 53.88353335 94.69125763 55.15950675 94.25216675 56.43557739 C93.07674184 59.84867938 91.8969721 63.26026427 90.71631241 66.67155838 C89.47135437 70.27105332 88.23045395 73.8719469 86.98901367 77.47265625 C84.2418026 85.43810095 81.48857169 93.40145687 78.73384094 101.36430359 C77.67339541 104.42998588 76.61357412 107.49588392 75.55371094 110.56176758 C72.23330926 120.16556464 68.9099037 129.76831467 65.58215332 139.36956787 C62.10086255 149.41387455 58.62649241 159.46053166 55.16015625 169.51000977 C47.95022229 190.41115046 40.73986533 211.31182957 33.41796875 232.17407227 C33.14334808 232.95773163 32.86872742 233.74139099 32.58578491 234.54879761 C31.83087401 236.70178126 31.07406342 238.85408501 30.31640625 241.00610352 C29.89794434 242.1956665 29.47948242 243.38522949 29.04833984 244.61083984 C28.04296875 247.36157227 28.04296875 247.36157227 27.04296875 249.36157227 C17.80296875 249.36157227 8.56296875 249.36157227 -0.95703125 249.36157227 C-6.25314688 235.18164977 -11.26299667 220.91975152 -16.17391968 206.60229492 C-18.1617743 200.8069978 -20.1548645 195.01350395 -22.14847374 189.22018433 C-22.59621789 187.91904073 -23.04389174 186.61787294 -23.49149513 185.31668091 C-27.21129927 174.50414137 -30.96933989 163.70537202 -34.75024414 152.9140625 C-40.77722905 135.71173456 -46.68054049 118.46981474 -52.52575684 101.20489502 C-56.40157094 89.75835964 -60.30183449 78.32181286 -64.296875 66.91625977 C-64.81883957 65.4257309 -64.81883957 65.4257309 -65.35134888 63.90509033 C-66.99896503 59.2048169 -68.65217794 54.50659066 -70.3125 49.81079102 C-70.90108146 48.13762793 -71.48962528 46.4644516 -72.078125 44.79125977 C-72.34189438 44.05084442 -72.60566376 43.31042908 -72.87742615 42.5475769 C-74.51999176 37.8669929 -75.816947 33.19004461 -76.95703125 28.36157227 C-75.91804688 28.27520508 -74.8790625 28.18883789 -73.80859375 28.09985352 C-62.45781292 27.01642564 -53.87618696 24.94572324 -45.85546875 16.32250977 C-35.61535219 5.74527003 -15.4384551 -8.55411759 0 0 Z " fill="#F2AB7D" transform="translate(116.95703125,257.638427734375)"/>
<path d="M0 0 C1.97691144 -0.01898903 3.95377331 -0.04392683 5.93054199 -0.07434082 C11.28292416 -0.13801221 16.63151711 -0.11349639 21.98396301 -0.06903362 C27.59325114 -0.03350416 33.20222209 -0.0664836 38.81152344 -0.08843994 C48.23040845 -0.11388727 57.64775503 -0.08040975 67.06640625 -0.01367188 C77.94501394 0.06252233 88.81994856 0.03784053 99.69846725 -0.03924155 C109.05019878 -0.10284447 118.40082661 -0.11170599 127.75270462 -0.07510018 C133.33310377 -0.05330989 138.9117782 -0.05025558 144.49206543 -0.09661102 C149.7403538 -0.13716587 154.9839246 -0.10883225 160.23170471 -0.02809143 C162.15324579 -0.00963426 164.07518649 -0.0148077 165.99656677 -0.04576874 C180.08052653 -0.25173461 180.08052653 -0.25173461 184.22065735 3.16841412 C187.53681251 6.97075722 189.56735732 11.21743052 191.578125 15.81152344 C192.13195862 16.94751102 192.68579224 18.08349861 193.25640869 19.25391006 C198.03019325 29.36769383 198.15578401 40.55094141 195.015625 51.18652344 C192.75728914 57.05979267 189.53106571 61.94435636 185.578125 66.81152344 C185.11664063 67.39804688 184.65515625 67.98457031 184.1796875 68.58886719 C179.97506947 73.36463275 174.41529012 75.54880213 168.578125 77.81152344 C167.63453125 78.18019531 166.6909375 78.54886719 165.71875 78.92871094 C157.29143267 81.29758372 146.90072766 80.96337762 138.98046875 77.19433594 C133.37833513 73.96969317 128.0907021 70.30570729 122.82324219 66.56542969 C105.05880384 53.98985095 87.95029244 48.26820856 66.06616211 51.5847168 C53.3400077 53.87658606 41.29535022 58.6520774 29.24291992 63.21459961 C18.66906118 67.20435903 8.9972066 70.21162187 -2.421875 70.12402344 C-3.20151611 70.11838379 -3.98115723 70.11274414 -4.78442383 70.10693359 C-13.35232615 69.92670697 -20.54584551 68.61733198 -26.953125 62.55761719 C-34.53418523 53.54502697 -34.13105998 42.41469584 -33.63525391 31.26416016 C-33.1313427 25.47206413 -31.00633549 20.92534773 -28.421875 15.81152344 C-27.89881775 14.62452724 -27.3757605 13.43753105 -26.83685303 12.21456528 C-20.73781746 -0.27805793 -12.93557448 -0.20844327 0 0 Z " fill="#4892CB" transform="translate(48.421875,95.1884765625)"/>
<path d="M0 0 C17.16 0 34.32 0 52 0 C53.06953013 18.55023958 54.13180929 37.10084868 55.1810236 55.65224743 C55.6684831 64.26705693 56.15913847 72.88166164 56.6574707 81.49584961 C57.09209401 89.00890654 57.52056504 96.52228552 57.94182485 104.03610402 C58.16483687 108.01010602 58.39080834 111.98388714 58.62416267 115.95729637 C58.84428484 119.7070633 59.05609799 123.45721282 59.26189613 127.20779228 C59.3743884 129.22022997 59.49537182 131.23218759 59.61672974 133.24411011 C60.37382709 147.36115715 60.59319383 160.14610414 50.953125 171.38671875 C42.95643876 179.05729899 34.86411159 181.63190029 23.89990234 181.46875 C14.52671244 181.04219099 7.7914377 177.85623723 1.046875 171.38671875 C-9.48177657 159.10998954 -8.29959519 144.56494044 -7.37915039 129.30541992 C-7.29974222 127.88484234 -7.22109567 126.46422202 -7.1431427 125.04356384 C-6.93176386 121.22993994 -6.70988927 117.41699432 -6.4859612 113.6040895 C-6.25284507 109.60329787 -6.02961375 105.60195432 -5.80528259 101.60066223 C-5.38007984 94.04292334 -4.94613517 86.48571346 -4.50895828 78.92865878 C-4.01120953 70.31705778 -3.52334471 61.70490547 -3.03626263 53.09269559 C-2.03508308 35.39449491 -1.02034203 17.69710698 0 0 Z " fill="#F6C8A9" transform="translate(381,326)"/>
<path d="M0 0 C0.92425781 0.37769531 1.84851563 0.75539062 2.80078125 1.14453125 C10.42241878 4.63382866 17.17730479 9.38405668 23.97509766 14.24194336 C35.46827915 22.37253862 45.82620213 26.65811609 60 25 C64.54342075 23.71970748 68.72320112 21.97939857 73 20 C73.99 19.67 74.98 19.34 76 19 C79.84348504 32.89831643 80 44.05721978 80 59 C13.34 59 -53.32 59 -122 59 C-122 26.43171115 -122 26.43171115 -116 15 C-114.741875 15.04640625 -113.48375 15.0928125 -112.1875 15.140625 C-95.60742917 15.57608427 -82.62390432 12.02982229 -67.23342896 6.24517822 C-66.5788974 5.99926941 -65.92436584 5.7533606 -65.25 5.5 C-64.59554901 5.25409119 -63.94109802 5.00818237 -63.26681519 4.75482178 C-42.7928831 -2.90154119 -21.10512532 -8.65501258 0 0 Z " fill="#C12945" transform="translate(151,149)"/>
<path d="M0 0 C0.33 0 0.66 0 1 0 C1.09961787 6.06481249 1.17182006 12.12913826 1.21972656 18.19458008 C1.23971846 20.25358386 1.26692128 22.31253177 1.30175781 24.37133789 C1.55712793 39.86253994 1.25164212 52.21362637 -10 64 C-19.89683581 73.44783002 -30.38500077 75.60525204 -43.7421875 75.51757812 C-45.08555861 75.52301217 -46.42892375 75.53014196 -47.77227783 75.53881836 C-51.38810364 75.55690282 -55.00346797 75.55004669 -58.61930084 75.53730202 C-62.42313276 75.52709638 -66.22692807 75.5365885 -70.03076172 75.54284668 C-76.41576144 75.55010127 -82.80057542 75.54059324 -89.18554688 75.52148438 C-96.54235916 75.49971972 -103.89872785 75.50677265 -111.2555294 75.52879 C-117.59900873 75.54700678 -123.94235537 75.54947182 -130.28585243 75.53903532 C-134.06269209 75.53283469 -137.83932401 75.53186916 -141.6161499 75.54518127 C-145.16885647 75.55683127 -148.72099733 75.54854993 -152.27364349 75.52560425 C-154.18105821 75.5178886 -156.08852141 75.52959453 -157.99591064 75.54211426 C-169.91093076 75.4262959 -179.30520814 72.30032115 -188 64 C-199.92044479 51.51303902 -199.53217996 38.09242003 -199.25 21.8125 C-199.22990364 19.79103333 -199.21165842 17.76954736 -199.1953125 15.74804688 C-199.15156707 10.8315489 -199.08271258 5.91599049 -199 1 C-197.86528369 3.21769334 -196.865356 5.36061629 -195.9921875 7.69921875 C-191.9110607 18.61551945 -186.35155156 25.23932725 -176.1015625 30.80859375 C-167.6742231 34.04579591 -159.16374296 34.29756987 -150.22924805 34.29052734 C-148.99045898 34.29724457 -147.75166992 34.30396179 -146.4753418 34.31088257 C-143.10525804 34.32653281 -139.73542089 34.33323207 -136.36531806 34.33451414 C-134.25218469 34.33594395 -132.13907654 34.34022907 -130.02594948 34.34550858 C-122.63227341 34.36396285 -115.23866904 34.37218488 -107.8449707 34.37060547 C-100.98754364 34.36940492 -94.13043173 34.39050183 -87.27308434 34.4220928 C-81.35594084 34.44836662 -75.43889959 34.45896816 -69.5216983 34.45769465 C-66.00072307 34.45718832 -62.48002849 34.46268711 -58.95911217 34.48405075 C-55.0255982 34.50727087 -51.09250654 34.49784467 -47.15893555 34.48583984 C-46.01513931 34.49707886 -44.87134308 34.50831787 -43.69288635 34.51989746 C-30.99751814 34.42208633 -19.83598182 30.97527901 -10.29296875 22.48046875 C-4.53217633 16.48632777 -1.3800109 8.1019995 0 0 Z " fill="#C22945" transform="translate(506,251)"/>
<path d="M0 0 C25.47905349 0.25867059 48.64489967 12.31221818 66.66015625 29.83984375 C83.50828185 47.57334226 93.39061333 70.06282913 94.8125 94.5 C94.69829764 98.1938556 94.60438462 100.48037111 92.58203125 103.5859375 C90.52064068 105.47040234 88.4529673 106.87188726 86.0625 108.3125 C85.28390625 108.86421875 84.5053125 109.4159375 83.703125 109.984375 C76.68467709 114.93026111 70.76977388 117.5620935 62.0625 116.3125 C55.2171921 113.82549219 51.25976424 108.64398383 48.0625 102.3125 C43.0625 90.18848945 43.0625 90.18848945 43.0625 85.3125 C42.35867188 85.5290625 41.65484375 85.745625 40.9296875 85.96875 C32.52473149 88.33881592 22.97177964 90.50479764 14.50390625 87.36328125 C10.44380696 85.00171891 8.09894728 82.60766166 6.0625 78.3125 C4.42113321 65.94753682 7.46624676 56.29580075 13.0625 45.3125 C11.70318359 45.36470703 11.70318359 45.36470703 10.31640625 45.41796875 C1.47858358 45.61436481 -5.86831374 45.68905881 -12.875 39.875 C-17.42850134 34.21761954 -17.67848279 29.42593475 -16.9375 22.3125 C-14.65587806 12.97859207 -10.55527531 0.22972535 0 0 Z " fill="#F5C7A9" transform="translate(412.9375,4.6875)"/>
<path d="M0 0 C2.80969467 1.28022875 4.8539238 2.60714129 7.02441406 4.79736328 C7.86483246 5.63800827 7.86483246 5.63800827 8.722229 6.49563599 C9.31404968 7.09777924 9.90587036 7.69992249 10.515625 8.3203125 C11.13145447 8.93897186 11.74728394 9.55763123 12.3817749 10.19503784 C14.34260336 12.16703814 16.29635301 14.14588737 18.25 16.125 C19.58026799 17.46530164 20.910992 18.80515083 22.2421875 20.14453125 C25.5001015 23.42446589 28.75168533 26.71055942 32 30 C28.22875755 34.50454825 24.3393403 38.80193876 20.1640625 42.93359375 C19.63984711 43.4563942 19.11563171 43.97919464 18.57553101 44.51783752 C16.9277213 46.16012345 15.27644099 47.7988665 13.625 49.4375 C12.49586045 50.56161467 11.36695222 51.68596174 10.23828125 52.81054688 C7.49484812 55.54305235 4.74830015 58.27239009 2 61 C-0.80969467 59.71977125 -2.8539238 58.39285871 -5.02441406 56.20263672 C-5.58469299 55.64220673 -6.14497192 55.08177673 -6.722229 54.50436401 C-7.31404968 53.90222076 -7.90587036 53.30007751 -8.515625 52.6796875 C-9.13145447 52.06102814 -9.74728394 51.44236877 -10.3817749 50.80496216 C-12.34260336 48.83296186 -14.29635301 46.85411263 -16.25 44.875 C-17.58026799 43.53469836 -18.910992 42.19484917 -20.2421875 40.85546875 C-23.5001015 37.57553411 -26.75168533 34.28944058 -30 31 C-26.22875755 26.49545175 -22.3393403 22.19806124 -18.1640625 18.06640625 C-17.63984711 17.5436058 -17.11563171 17.02080536 -16.57553101 16.48216248 C-14.9277213 14.83987655 -13.27644099 13.2011335 -11.625 11.5625 C-10.49586045 10.43838533 -9.36695222 9.31403826 -8.23828125 8.18945312 C-5.49484812 5.45694765 -2.74830015 2.72760991 0 0 Z " fill="#F5C8A9" transform="translate(129,401)"/>
<path d="M0 0 C5.68175211 2.4525257 9.6529281 7.16184428 14 11.4375 C15.35351562 12.71657227 15.35351562 12.71657227 16.734375 14.02148438 C22.31176797 19.51224624 26.91711259 24.99517378 28 33 C26.80124478 36.92381558 23.73779394 39.60176711 20.9140625 42.45703125 C20.16677383 43.21786263 20.16677383 43.21786263 19.40438843 43.99406433 C18.35305388 45.0598617 17.29892403 46.12290806 16.2421875 47.18334961 C14.62503039 48.81246938 13.02746275 50.45931719 11.4296875 52.10742188 C10.40479838 53.14176828 9.37879397 54.17501104 8.3515625 55.20703125 C7.87538483 55.70274124 7.39920715 56.19845123 6.90859985 56.70918274 C5.53369141 58.06567383 5.53369141 58.06567383 3 60 C-0.17736376 59.65897907 -1.81614253 58.55454643 -4.02441406 56.31616211 C-4.86483246 55.47540382 -4.86483246 55.47540382 -5.722229 54.61766052 C-6.31404968 54.01035599 -6.90587036 53.40305145 -7.515625 52.77734375 C-8.13145447 52.15726944 -8.74728394 51.53719513 -9.3817749 50.89833069 C-11.34500635 48.91832095 -13.29754436 46.92813081 -15.25 44.9375 C-16.58003748 43.59241465 -17.91075879 42.24800512 -19.2421875 40.90429688 C-22.50277537 37.61065094 -25.75381188 34.30783661 -29 31 C-27.34763349 26.70932454 -24.1094793 23.8570447 -20.8984375 20.703125 C-20.30197418 20.10949158 -19.70551086 19.51585815 -19.0909729 18.90423584 C-17.1903019 17.01473373 -15.28278526 15.13231608 -13.375 13.25 C-12.08287532 11.96790935 -10.79120324 10.68536239 -9.5 9.40234375 C-6.33855521 6.26291568 -3.1709539 3.12982199 0 0 Z " fill="#F5C8A9" transform="translate(91,288)"/>
<path d="M0 0 C3 1 3 1 4.625 3.25 C8.75210338 8.02875128 14.99656803 11.10417938 21 13 C22.0725 13.020625 23.145 13.04125 24.25 13.0625 C30.02718466 14.50679616 33.12608576 18.65172891 37 23 C35.34763349 27.29067546 32.1094793 30.1429553 28.8984375 33.296875 C28.30197418 33.89050842 27.70551086 34.48414185 27.0909729 35.09576416 C25.1903019 36.98526627 23.28278526 38.86768392 21.375 40.75 C20.08287532 42.03209065 18.79120324 43.31463761 17.5 44.59765625 C14.33855521 47.73708432 11.1709539 50.87017801 8 54 C3.70932454 52.34763349 0.8570447 49.1094793 -2.296875 45.8984375 C-2.89050842 45.30197418 -3.48414185 44.70551086 -4.09576416 44.0909729 C-5.98526627 42.1903019 -7.86768392 40.28278526 -9.75 38.375 C-11.03209065 37.08287532 -12.31463761 35.79120324 -13.59765625 34.5 C-16.73708432 31.33855521 -19.87017801 28.1709539 -23 25 C-21.43717018 21.23396131 -19.0936525 18.86360849 -16.2109375 16.015625 C-15.74765045 15.55516785 -15.2843634 15.09471069 -14.80703735 14.62030029 C-13.33434102 13.15874922 -11.85482597 11.70432832 -10.375 10.25 C-9.37193678 9.25697389 -8.36932743 8.26348911 -7.3671875 7.26953125 C-4.91669165 4.84102059 -2.4600333 2.41885325 0 0 Z " fill="#F5C8A9" transform="translate(123,332)"/>
<path d="M0 0 C1.10492435 0.93702365 2.20839893 1.87575698 3.3112793 2.81518555 C3.92593552 3.33775436 4.54059174 3.86032318 5.1738739 4.39872742 C8.36859476 7.20007773 11.29250885 10.25137242 14.25585938 13.29492188 C16.86489872 15.99141512 16.86489872 15.99141512 20 18 C18.53504262 25.45500536 16.33931189 32.60567709 13.90625 39.79443359 C13.46730537 41.10244939 13.03700526 42.41339671 12.61523438 43.72705078 C8.10615079 57.76733193 8.10615079 57.76733193 2 61 C-1.17971144 60.62425707 -2.80638928 59.56443268 -5.02441406 57.31616211 C-5.86483246 56.47540382 -5.86483246 56.47540382 -6.722229 55.61766052 C-7.31404968 55.01035599 -7.90587036 54.40305145 -8.515625 53.77734375 C-9.13145447 53.15726944 -9.74728394 52.53719513 -10.3817749 51.89833069 C-12.34500635 49.91832095 -14.29754436 47.92813081 -16.25 45.9375 C-17.58003748 44.59241465 -18.91075879 43.24800512 -20.2421875 41.90429688 C-23.50277537 38.61065094 -26.75381188 35.30783661 -30 32 C-28.71977125 29.19030533 -27.39285871 27.1460762 -25.20263672 24.97558594 C-24.64220673 24.41530701 -24.08177673 23.85502808 -23.50436401 23.277771 C-22.90222076 22.68595032 -22.30007751 22.09412964 -21.6796875 21.484375 C-21.06102814 20.86854553 -20.44236877 20.25271606 -19.80496216 19.6182251 C-17.83296186 17.65739664 -15.85411263 15.70364699 -13.875 13.75 C-12.53469836 12.41973201 -11.19484917 11.089008 -9.85546875 9.7578125 C-6.57553411 6.4998985 -3.28944058 3.24831467 0 0 Z " fill="#F5C8A9" transform="translate(167,363)"/>
<path d="M0 0 C3.49159766 1.24848927 5.82311899 4.02795772 8.39811707 6.60205078 C8.99412216 7.19044235 9.59012726 7.77883392 10.20419312 8.38505554 C11.45946163 9.62953163 12.71078905 10.87799386 13.9584198 12.13012695 C15.87522174 14.04790374 17.81236335 15.94335706 19.75163269 17.83837891 C20.9684258 19.04996704 22.18396502 20.26281601 23.39811707 21.47705078 C23.98132217 22.04386063 24.56452728 22.61067047 25.16540527 23.19465637 C26.76457214 24.82202148 26.76457214 24.82202148 29.06608582 27.73876953 C28.76535679 30.92021864 27.61647516 32.55901322 25.38224792 34.76318359 C24.54148964 35.60360199 24.54148964 35.60360199 23.68374634 36.46099854 C23.0764418 37.05281921 22.46913727 37.64463989 21.84342957 38.25439453 C21.22335526 38.870224 20.60328094 39.48605347 19.9644165 40.12054443 C17.98440677 42.08377588 15.99421662 44.03631389 14.00358582 45.98876953 C12.65850047 47.31880701 11.31409094 48.64952832 9.97038269 49.98095703 C6.67673676 53.24154491 3.37392243 56.49258141 0.06608582 59.73876953 C-4.05527922 58.21233804 -6.54202628 55.30438015 -8.93391418 51.73876953 C-10.06831537 49.23245029 -11.02704154 46.88182235 -11.89875793 44.29345703 C-12.14058304 43.60115997 -12.38240814 42.90886292 -12.63156128 42.19558716 C-13.13444637 40.74395903 -13.63074873 39.29003494 -14.12068176 37.83398438 C-14.87416372 35.60563807 -15.65743253 33.38933085 -16.44367981 31.17236328 C-16.93052406 29.75501776 -17.41561325 28.33706792 -17.89875793 26.91845703 C-18.25163124 25.92771683 -18.25163124 25.92771683 -18.6116333 24.91696167 C-19.50285215 22.20720461 -20.10487842 20.31773847 -19.28327942 17.53540039 C-16.52292164 13.86008415 -13.29116732 10.68426627 -10.05891418 7.42626953 C-9.33832825 6.6728125 -8.61774231 5.91935547 -7.87532043 5.14306641 C-7.1753595 4.43601562 -6.47539856 3.72896484 -5.75422668 3.00048828 C-5.11759094 2.35039795 -4.4809552 1.70030762 -3.82502747 1.03051758 C-1.93391418 -0.26123047 -1.93391418 -0.26123047 0 0 Z " fill="#F6C8A9" transform="translate(92.93391418457031,364.26123046875)"/>
<path d="M0 0 C1.6171875 1.62109375 1.6171875 1.62109375 2.1796875 3.93359375 C0.30965359 12.86820022 -10.59320791 18.13301598 -17.6015625 22.734375 C-29.78220211 30.43427933 -42.60642004 37.5592774 -57.3828125 36.62109375 C-57.7128125 36.29109375 -58.0428125 35.96109375 -58.3828125 35.62109375 C-58.3828125 27.44269271 -53.38654121 22.74613622 -47.96484375 17.10546875 C-37.34705373 6.87976846 -15.37450285 -8.89704837 0 0 Z " fill="#4792CB" transform="translate(119.3828125,20.37890625)"/>
<path d="M0 0 C17.16 0 34.32 0 52 0 C52.33 6.6 52.66 13.2 53 20 C35.51 20 18.02 20 0 20 C0 13.4 0 6.8 0 0 Z " fill="#F3AB7D" transform="translate(381,326)"/>
<path d="M0 0 C4.80896408 2.1644654 8.08241047 5.60046639 11.8125 9.25 C12.51826172 9.90613281 13.22402344 10.56226563 13.95117188 11.23828125 C18.96169519 16.14634985 18.96169519 16.14634985 19.13671875 20.046875 C17.8460692 23.3999027 16.41529295 26.69764979 15 30 C5.76 30 -3.48 30 -13 30 C-17 20 -17 20 -16 16 C-14.41772461 14.07714844 -14.41772461 14.07714844 -12.40234375 12.109375 C-11.68369141 11.40039062 -10.96503906 10.69140625 -10.22460938 9.9609375 C-9.46986328 9.23132813 -8.71511719 8.50171875 -7.9375 7.75 C-7.17888672 7.00492187 -6.42027344 6.25984375 -5.63867188 5.4921875 C-3.76567793 3.65453306 -1.88604389 1.82424276 0 0 Z " fill="#F6C8A9" transform="translate(129,477)"/>
<path d="M0 0 C-1.23642931 6.1822036 -2.90895256 12.04273735 -5.0390625 17.97265625 C-5.32478119 18.78117538 -5.61049988 19.58969452 -5.90487671 20.42271423 C-6.80668432 22.97107896 -7.71570079 25.51680007 -8.625 28.0625 C-9.24266879 29.80386582 -9.85986068 31.54540087 -10.4765625 33.28710938 C-11.97887519 37.52671377 -13.48765266 41.76396533 -15 46 C-16.11228972 45.0542569 -17.22348623 44.107228 -18.33422852 43.15966797 C-18.95314468 42.63243134 -19.57206085 42.1051947 -20.20973206 41.5619812 C-22.5563298 39.51461082 -24.75278049 37.34333058 -26.9375 35.125 C-27.70964844 34.34382813 -28.48179687 33.56265625 -29.27734375 32.7578125 C-29.84582031 32.17773438 -30.41429687 31.59765625 -31 31 C-29.34505714 26.73294513 -26.15086959 23.8628007 -22.96875 20.703125 C-22.37703003 20.10949158 -21.78531006 19.51585815 -21.17565918 18.90423584 C-19.92734419 17.65456282 -18.67651177 16.40740008 -17.42333984 15.16259766 C-15.49992003 13.24992048 -13.58743901 11.32676881 -11.67578125 9.40234375 C-10.46157861 8.18946202 -9.24675607 6.97720048 -8.03125 5.765625 C-7.45725464 5.18758118 -6.88325928 4.60953735 -6.29187012 4.01397705 C-2.22993434 0 -2.22993434 0 0 0 Z " fill="#F6C8A8" transform="translate(206,326)"/>
<path d="M0 0 C4.29067546 1.65236651 7.1429553 4.8905207 10.296875 8.1015625 C10.89050842 8.69802582 11.48414185 9.29448914 12.09576416 9.9090271 C13.98526627 11.8096981 15.86768392 13.71721474 17.75 15.625 C19.03209065 16.91712468 20.31463761 18.20879676 21.59765625 19.5 C24.73708432 22.66144479 27.87017801 25.8290461 31 29 C29.72707565 31.78452202 28.40765908 33.84781564 26.25 36.015625 C25.7240625 36.54414063 25.198125 37.07265625 24.65625 37.6171875 C24.1096875 38.15601563 23.563125 38.69484375 23 39.25 C22.18015625 40.08144531 22.18015625 40.08144531 21.34375 40.9296875 C17.2533867 45 17.2533867 45 15 45 C12.38339926 37.75060015 9.77279375 30.4990696 7.16748047 23.24560547 C6.137556 20.38240683 5.10267858 17.5210612 4.06640625 14.66015625 C3.52314768 13.14854163 2.9801565 11.63683087 2.4375 10.125 C2.18661621 9.43736572 1.93573242 8.74973145 1.67724609 8.04125977 C0.66624969 5.20865801 0 3.03506963 0 0 Z " fill="#F6C8A8" transform="translate(54,326)"/>
<path d="M0 0 C1.10159241 3.30477722 0.95861924 3.85019701 -0.13989258 6.98071289 C-0.55075859 8.17193504 -0.55075859 8.17193504 -0.96992493 9.38722229 C-1.27504501 10.2404155 -1.5801651 11.0936087 -1.89453125 11.97265625 C-2.20194748 12.85150986 -2.50936371 13.73036346 -2.82609558 14.635849 C-3.47841214 16.49420384 -4.13521728 18.35098825 -4.79614258 20.20629883 C-5.80840252 23.05098513 -6.80466368 25.90089921 -7.79882812 28.75195312 C-8.43395205 30.55502022 -9.06998922 32.35776595 -9.70703125 34.16015625 C-10.00607864 35.01537369 -10.30512604 35.87059113 -10.61323547 36.75172424 C-10.89660263 37.54272018 -11.17996979 38.33371613 -11.47192383 39.14868164 C-11.71920731 39.84578751 -11.96649078 40.54289337 -12.2212677 41.26112366 C-13 43 -13 43 -15 45 C-19.62 40.38 -24.24 35.76 -29 31 C-25.25631717 26.63237004 -21.69572174 22.57994524 -17.63671875 18.57421875 C-17.15926712 18.10055374 -16.68181549 17.62688873 -16.18989563 17.13887024 C-14.69155606 15.65257083 -13.1899631 14.16963011 -11.6875 12.6875 C-9.68853383 10.71511498 -7.6929078 8.73943603 -5.69921875 6.76171875 C-4.82096436 5.89506592 -3.94270996 5.02841309 -3.0378418 4.13549805 C-0.96272827 2.17041329 -0.96272827 2.17041329 0 0 Z " fill="#F6C8A9" transform="translate(166,439)"/>
<path d="M0 0 C4.19625909 1.63778045 6.98676785 4.73323182 10.078125 7.8828125 C10.64956238 8.45707977 11.22099976 9.03134705 11.80975342 9.62301636 C13.62792945 11.4523581 15.43901492 13.28854193 17.25 15.125 C18.48391329 16.36894774 19.71828322 17.6124427 20.953125 18.85546875 C23.97406743 21.89842367 26.98867092 24.94753254 30 28 C26.66883385 31.95374187 23.31571444 35.81041857 19.625 39.4375 C18.93664062 40.11683594 18.24828125 40.79617188 17.5390625 41.49609375 C17.03117187 41.99238281 16.52328125 42.48867188 16 43 C13.92183032 40.92183032 13.43029314 39.82998772 12.48779297 37.11694336 C12.06758377 35.92076637 12.06758377 35.92076637 11.6388855 34.70042419 C11.34297516 33.83893265 11.04706482 32.9774411 10.7421875 32.08984375 C10.43427277 31.20720352 10.12635803 30.32456329 9.80911255 29.41517639 C9.15927304 27.54912321 8.5121987 25.68210514 7.86767578 23.81420898 C6.87716429 20.94377196 5.87881494 18.07615983 4.87890625 15.20898438 C4.2495429 13.39859634 3.62062145 11.58805461 2.9921875 9.77734375 C2.6922287 8.91382797 2.3922699 8.05031219 2.08322144 7.16062927 C0 1.1179387 0 1.1179387 0 0 Z " fill="#F6C8A9" transform="translate(93,441)"/>
<path d="M0 0 C0.99 0.33 1.98 0.66 3 1 C1.33898108 5.24690868 -1.81252808 8.15388191 -4.9609375 11.33203125 C-5.54791412 11.92803635 -6.13489075 12.52404144 -6.73965454 13.1381073 C-7.97929844 14.3922274 -9.22174608 15.64358151 -10.46679688 16.89233398 C-12.37361546 18.81110678 -14.26098794 20.7477424 -16.1484375 22.68554688 C-17.3556187 23.90218592 -18.56391474 25.11772004 -19.7734375 26.33203125 C-20.33711029 26.91523636 -20.90078308 27.49844147 -21.48153687 28.09931946 C-23.09912109 29.69848633 -23.09912109 29.69848633 -26 32 C-28.05630493 31.8313446 -28.05630493 31.8313446 -30 31 C-30.66 30.01 -31.32 29.02 -32 28 C-31.32195312 27.67128906 -30.64390625 27.34257812 -29.9453125 27.00390625 C-17.27964461 20.53073249 -8.82306483 10.85270522 0 0 Z " fill="#F5C7A7" transform="translate(195,316)"/>
<path d="M0 0 C2 1 2 1 2.88671875 3.14453125 C3.15097656 4.02496094 3.41523437 4.90539062 3.6875 5.8125 C4.09548828 7.12154297 4.09548828 7.12154297 4.51171875 8.45703125 C5 11 5 11 4 15 C0.7 11.7 -2.6 8.4 -6 5 C-3 1 -3 1 0 0 Z " fill="#F5C5A5" transform="translate(105,276)"/>
<path d="M0 0 C-3.465 2.97 -3.465 2.97 -7 6 C-8.32 4.35 -9.64 2.7 -11 1 C-3.375 -1.125 -3.375 -1.125 0 0 Z " fill="#F5C6A5" transform="translate(61,305)"/>
</svg>
