<?xml version="1.0" encoding="UTF-8"?>
<svg version="1.1" xmlns="http://www.w3.org/2000/svg" width="512" height="512">
<path d="M0 0 C6.01186215 3.8211836 9.47725615 7.88558711 11.22265625 14.8671875 C11.22265625 24.4371875 11.22265625 34.0071875 11.22265625 43.8671875 C32.34265625 43.8671875 53.46265625 43.8671875 75.22265625 43.8671875 C75.22265625 35.2871875 75.22265625 26.7071875 75.22265625 17.8671875 C78.60529925 6.59171084 78.60529925 6.59171084 82.72265625 3.3046875 C83.49609375 2.66402344 84.26953125 2.02335938 85.06640625 1.36328125 C90.41529534 -2.34799506 96.98230903 -1.55601731 103.22265625 -1.1328125 C109.75426715 1.08326977 114.10697798 5.79161486 117.22265625 11.8671875 C119.81096582 22.22042576 118.22265625 33.19531377 118.22265625 43.8671875 C139.34265625 43.8671875 160.46265625 43.8671875 182.22265625 43.8671875 C182.22265625 34.6271875 182.22265625 25.3871875 182.22265625 15.8671875 C185.20117212 7.92447851 187.06777322 3.12048121 194.74609375 -0.40234375 C200.85416836 -2.20393673 208.37365724 -2.54071532 214.16015625 0.4296875 C221.57821153 6.33385395 223.0292532 8.99687376 225.22265625 18.8671875 C225.22265625 27.1171875 225.22265625 35.3671875 225.22265625 43.8671875 C246.34265625 43.8671875 267.46265625 43.8671875 289.22265625 43.8671875 C289.22265625 33.9671875 289.22265625 24.0671875 289.22265625 13.8671875 C292.85526842 6.60196316 295.67018883 1.89081519 303.22265625 -1.1328125 C310.67188328 -2.00433537 317.52105995 -2.22723918 323.67578125 2.44140625 C328.31169661 6.71440905 331.01466508 10.82447799 331.44970703 17.1887207 C331.4392334 18.41937256 331.42875977 19.65002441 331.41796875 20.91796875 C331.41372391 21.90617867 331.41372391 21.90617867 331.40939331 22.91435242 C331.39826549 25.00298812 331.37317573 27.09118306 331.34765625 29.1796875 C331.33761684 30.60220732 331.32849267 32.0247339 331.3203125 33.44726562 C331.29835072 36.92071431 331.26387271 40.39390783 331.22265625 43.8671875 C332.37266113 43.85147705 333.52266602 43.8357666 334.70751953 43.81958008 C338.99016262 43.76511882 343.27277531 43.73077864 347.55566406 43.70239258 C349.40630244 43.68734279 351.25690536 43.66689817 353.10742188 43.64086914 C355.7735267 43.6043177 358.43915833 43.58742296 361.10546875 43.57421875 C361.92757843 43.55873489 362.74968811 43.54325104 363.59671021 43.52729797 C368.54443322 43.5258613 371.95637134 44.08020203 376.22265625 46.8671875 C378.84758698 50.8045836 378.52552106 54.18605252 378.52905273 58.75732422 C378.53737625 59.66656647 378.54569977 60.57580872 378.55427551 61.51260376 C378.5784086 64.52407082 378.58715159 67.53532144 378.59375 70.546875 C378.60271366 72.63811306 378.61183545 74.72935045 378.62110901 76.82058716 C378.63761046 81.20706746 378.64530126 85.59347134 378.64819336 89.97998047 C378.65357897 95.60153819 378.6912618 101.22237794 378.73693752 106.84373283 C378.76667556 111.164018 378.77391621 115.48412958 378.77491951 119.80450821 C378.77912811 121.87697768 378.79158792 123.94944738 378.81243706 126.02181625 C378.83928417 128.9211689 378.83454584 131.81884838 378.82202148 134.71826172 C378.84427292 136.00268158 378.84427292 136.00268158 378.86697388 137.31304932 C378.81417912 141.60355576 378.61108439 143.35618416 375.93519592 146.87649536 C373.43174655 148.71373927 372.15051772 149.26643821 369.22265625 149.8671875 C369.22436499 150.76403393 369.22436499 150.76403393 369.22610825 151.67899847 C369.29324903 187.11879571 369.34471924 222.55858201 369.37585224 257.99842963 C369.37960434 262.25416152 369.38348731 266.50989329 369.38745117 270.765625 C369.3882381 271.61286111 369.38902503 272.46009722 369.38983581 273.33300716 C369.40288813 287.04959181 369.42654102 300.76613873 369.45411464 314.482701 C369.48217367 328.55817174 369.49883356 342.63362272 369.50492173 356.70912027 C369.50903714 365.39378034 369.52203328 374.07833374 369.54640565 382.76296097 C369.56226898 388.71911822 369.56705526 394.67522035 369.56316038 400.63139719 C369.56123976 404.06731353 369.56417472 407.50304352 369.58027267 410.9389267 C369.59519023 414.66723767 369.59161199 418.39509162 369.5834198 422.12341309 C369.59215832 423.20513967 369.60089685 424.28686625 369.60990018 425.40137243 C369.5550385 434.63397221 367.58255642 441.24428921 361.1796875 448.10546875 C354.30997073 454.28958504 346.44929454 454.99823358 337.46118164 454.98071289 C336.16036148 454.98063736 334.85954132 454.98056183 333.51930237 454.98048401 C332.11963868 454.97537891 330.71997539 454.97016294 329.3203125 454.96484375 C327.8730016 454.96297616 326.42569006 454.96155387 324.9783783 454.96055603 C321.18905865 454.95675768 317.39977799 454.9469506 313.61047363 454.93585205 C309.73576383 454.92557997 305.86104765 454.92104604 301.98632812 454.91601562 C294.39841982 454.90532566 286.81054352 454.88828184 279.22265625 454.8671875 C279.25746094 456.48367188 279.25746094 456.48367188 279.29296875 458.1328125 C279.21047265 462.51427195 278.4098857 465.07598978 276.22265625 468.8671875 C271.25577609 472.12518587 267.09831015 472.28395926 261.37158203 472.20776367 C260.50263809 472.20820175 259.63369415 472.20863983 258.73841858 472.20909119 C255.8813692 472.20700997 253.02491495 472.18371049 250.16796875 472.16015625 C248.18114543 472.15455792 246.19431796 472.15028894 244.20748901 472.14729309 C238.98942543 472.13586299 233.77161412 472.10641151 228.5536499 472.07318115 C223.22460339 472.04244075 217.89551595 472.02877927 212.56640625 472.01367188 C202.11837902 471.98154013 191.67053865 471.9303659 181.22265625 471.8671875 C181.22528473 472.55643311 181.22791321 473.24567871 181.23062134 473.95581055 C181.23266571 474.85855713 181.23471008 475.76130371 181.23681641 476.69140625 C181.23944489 477.58690186 181.24207336 478.48239746 181.24478149 479.4050293 C181.16750653 488.00439997 178.52401077 495.09128404 173.22265625 501.8671875 C166.09022705 508.73920346 158.29980083 511.46487471 148.43408203 511.42016602 C139.95811963 511.11487531 132.56430911 507.7741587 126.72265625 501.5546875 C121.12129086 494.08620031 119.1799106 486.37933586 119.20703125 477.171875 C119.20928711 476.17913574 119.21154297 475.18639648 119.21386719 474.16357422 C119.21821777 473.02686279 119.21821777 473.02686279 119.22265625 471.8671875 C117.57014359 471.87718025 117.57014359 471.87718025 115.88424683 471.88737488 C105.49654915 471.94821835 95.10888768 471.99317574 84.72105217 472.02262402 C79.38069094 472.03827268 74.04047369 472.05949655 68.70019531 472.09350586 C63.5454886 472.12612753 58.3909203 472.14404653 53.23611832 472.15181923 C51.27054796 472.15735767 49.30498508 472.16817291 47.33947372 472.18437767 C44.5840601 472.20618913 41.82921669 472.20915286 39.07373047 472.20776367 C37.85776436 472.22394241 37.85776436 472.22394241 36.61723328 472.240448 C31.76810539 472.21403462 28.39699442 471.60532221 24.22265625 468.8671875 C21.42551462 464.01880868 21.10418856 460.36935348 21.22265625 454.8671875 C20.41356812 454.87162872 19.60447998 454.87606995 18.77087402 454.88064575 C11.120978 454.92083139 3.47113365 454.95122705 -4.17884064 454.97081184 C-8.11113513 454.98121927 -12.04334191 454.99532246 -15.97558594 455.01806641 C-19.77517043 455.03990385 -23.57467091 455.05177897 -27.37431335 455.05694199 C-28.8190798 455.06061827 -30.26384201 455.06779683 -31.70857239 455.07864761 C-42.58245014 455.15701922 -52.96576528 455.15110848 -61.44140625 447.33203125 C-68.42831446 439.77722163 -69.218132 432.02952974 -69.1381073 422.12341309 C-69.14067057 420.95684882 -69.14323385 419.79028455 -69.1458748 418.58836985 C-69.1499473 415.36826116 -69.14062741 412.14851886 -69.12554061 408.92845345 C-69.11254258 405.44935276 -69.11697237 401.97026805 -69.11924744 398.4911499 C-69.1208178 392.46929413 -69.11143347 386.44753614 -69.09453392 380.42570496 C-69.07011623 371.71924589 -69.06233582 363.01283393 -69.05856995 354.30634433 C-69.0520098 340.17946319 -69.03206051 326.05263413 -69.00366211 311.92578125 C-68.97611022 298.20573181 -68.95488217 284.48569653 -68.94213867 270.765625 C-68.9413505 269.91942004 -68.94056233 269.07321509 -68.93975028 268.20136756 C-68.93583506 263.95605649 -68.93204396 259.71074531 -68.92831457 255.46543407 C-68.89723227 220.26598144 -68.84440838 185.06658928 -68.77734375 149.8671875 C-70.2051479 149.42052026 -70.2051479 149.42052026 -71.66179657 148.96482944 C-74.77734375 147.8671875 -74.77734375 147.8671875 -76.62609863 146.30491638 C-78.39995963 142.54881604 -78.21130818 138.96872871 -78.19726562 134.86352539 C-78.20573517 133.95413712 -78.21420471 133.04474884 -78.22293091 132.10780334 C-78.2463302 129.10167456 -78.24732238 126.09605672 -78.24609375 123.08984375 C-78.25319344 121.00003351 -78.26089216 118.91022523 -78.26916504 116.82041931 C-78.28261652 112.43987611 -78.28417554 108.05951316 -78.27832031 103.67895508 C-78.27242301 98.06523614 -78.30301436 92.45238169 -78.34343719 86.83882999 C-78.36928563 82.52281535 -78.3721942 78.20700965 -78.36854553 73.89092827 C-78.37023939 71.82126123 -78.37990734 69.75158482 -78.39768982 67.68199348 C-78.41982334 64.78748829 -78.41020615 61.89474327 -78.39257812 59.00024414 C-78.41247299 57.71818085 -78.41247299 57.71818085 -78.43276978 56.41021729 C-78.37151938 52.08221389 -78.17839854 50.38038363 -75.4263916 46.85887146 C-70.79491226 43.37669838 -66.50972886 43.73529123 -60.953125 43.76953125 C-59.66102364 43.77165367 -59.66102364 43.77165367 -58.34281921 43.77381897 C-55.59179206 43.7794161 -52.84084631 43.79196804 -50.08984375 43.8046875 C-48.22461055 43.80970287 -46.35937608 43.81426571 -44.49414062 43.81835938 C-39.92184364 43.82938458 -35.3496075 43.84664723 -30.77734375 43.8671875 C-30.79829102 43.00029297 -30.81923828 42.13339844 -30.84082031 41.24023438 C-30.90943937 37.9899496 -30.95935826 34.74003693 -30.99707031 31.48925781 C-31.01705005 30.08874277 -31.04424395 28.68830968 -31.07910156 27.28808594 C-31.27376879 19.26092544 -31.41047977 12.71689579 -26.77734375 5.8671875 C-19.62804661 -1.56412844 -9.79960093 -3.99702429 0 0 Z " fill="#D8EDFE" transform="translate(105.77734375,1.1328125)"/>
<path d="M0 0 C90.09 0 180.18 0 273 0 C277.68665093 18.74660374 281.13296718 37.13803476 283.6875 56.25 C283.79609344 57.05052795 283.90468689 57.85105591 284.01657104 58.67584229 C285.93640219 72.92613156 287.2429768 87.16600411 287.0625 101.5625 C287.05798828 102.29662109 287.05347656 103.03074219 287.04882812 103.78710938 C287.03747081 105.52477869 287.01957242 107.2624038 287 109 C284.60637183 106.61890391 282.22295832 104.23412692 279.89453125 101.7890625 C270.81686329 92.35373783 260.69548935 86.54440345 249 81 C248.96132813 79.24236328 248.96132813 79.24236328 248.921875 77.44921875 C248.54189509 65.48112663 247.72417364 54.8292064 239.06640625 45.72265625 C232.5402442 40.28213174 224.92244518 37.58819877 216.49609375 37.7265625 C207.22932206 38.74170181 200.16091353 43.86613654 194.4296875 50.9375 C191.69696762 55.30985182 190.87700797 58.85457688 191.109375 63.9609375 C191.70726163 78.11049968 191.70726163 78.11049968 188.38525391 81.78710938 C184.03894433 84.91686572 179.15397021 86.90870931 174.23632812 88.97021484 C158.29176553 96.3123726 147.48794811 114.22788077 141.10546875 129.7578125 C137.88045301 139.21633922 136.57734071 147.51631956 136.62890625 157.53125 C136.61151305 160.1432304 136.5939288 162.75520954 136.57617188 165.3671875 C136.56318794 169.42350482 136.56248739 173.47979931 136.56420898 177.53613281 C136.5539748 218.8589079 125.33591439 245.05457179 97 275 C96.08089844 275.68964844 95.16179687 276.37929688 94.21484375 277.08984375 C90.68993581 281.72133655 91.25664724 286.58655456 91.25 292.25 C91.21700703 294.44276321 91.18073435 296.63548041 91.140625 298.828125 C91.13579102 299.7965332 91.13095703 300.76494141 91.12597656 301.76269531 C91 304 91 304 90 305 C87.98708125 305.10464584 85.97045987 305.13856012 83.95483398 305.14526367 C82.01162514 305.15483345 82.01162514 305.15483345 80.02915955 305.16459656 C78.60147132 305.16612607 77.1737826 305.16723958 75.74609375 305.16796875 C74.28695136 305.17118148 72.82780931 305.17454556 71.3686676 305.17805481 C68.30102798 305.18405633 65.23341656 305.18589391 62.16577148 305.18530273 C58.2508498 305.18520162 54.33611157 305.19879597 50.42123318 305.21607494 C47.40217779 305.22724838 44.38316581 305.22922023 41.36409187 305.22869301 C39.92212358 305.22986731 38.48015395 305.23425799 37.0382061 305.24202538 C26.14029268 305.29518293 15.80854502 305.28112251 7.3359375 297.46484375 C0.34902929 289.91003413 -0.44078825 282.16234224 -0.36076355 272.25622559 C-0.36332682 271.08966132 -0.3658901 269.92309705 -0.36853105 268.72118235 C-0.37260355 265.50107366 -0.36328366 262.28133136 -0.34819686 259.06126595 C-0.33519883 255.58216526 -0.33962862 252.10308055 -0.34190369 248.6239624 C-0.34347405 242.60210663 -0.33408972 236.58034864 -0.31719017 230.55851746 C-0.29277248 221.85205839 -0.28499207 213.14564643 -0.2812262 204.43915683 C-0.27466605 190.31227569 -0.25471676 176.18544663 -0.22631836 162.05859375 C-0.19876647 148.33854427 -0.17757283 134.61850902 -0.16479492 120.8984375 C-0.16399093 120.04361062 -0.16318694 119.18878374 -0.16235858 118.30805302 C-0.15612004 111.62239481 -0.15024936 104.93673629 -0.14449489 98.25107765 C-0.11621188 65.50067064 -0.05585274 32.75039402 0 0 Z " fill="#EEF5FE" transform="translate(37,151)"/>
<path d="M0 0 C8.07323902 5.41414162 12.8509642 12.56918663 15 22 C15.21966209 25.15259572 15.1911657 28.27936007 15.125 31.4375 C15.11597656 32.26443359 15.10695313 33.09136719 15.09765625 33.94335938 C15.07431512 35.96236708 15.03845288 37.98122356 15 40 C16.258125 40.350625 17.51625 40.70125 18.8125 41.0625 C37.87725774 47.52664442 52.47370084 64.80613881 61.2421875 82.26171875 C67.51999596 95.2933307 69.28118916 108.59921384 69.30859375 122.9296875 C69.33374955 125.37890867 69.35914763 127.82812737 69.38476562 130.27734375 C69.4134455 134.07730483 69.43751099 137.87722309 69.45629883 141.67724609 C69.68468075 180.45197894 81.8598769 207.69856859 109 235 C109.69947754 235.39968994 110.39895508 235.79937988 111.11962891 236.21118164 C113.44603216 238.42431546 113.5379567 240.05366062 113.68260193 243.19171143 C113.69856163 244.21829865 113.69856163 244.21829865 113.71484375 245.265625 C113.73849503 245.97724792 113.7621463 246.68887085 113.78651428 247.42205811 C113.83175788 248.92808974 113.86728199 250.43444025 113.89379883 251.94091797 C113.93710535 254.22914774 114.01790757 256.51378801 114.10351562 258.80078125 C114.14288904 260.26817016 114.18006792 261.73561993 114.21484375 263.203125 C114.23965317 263.87941956 114.26446259 264.55571411 114.2900238 265.25250244 C114.3453668 270.15930249 113.46812527 273.75709035 111 278 C106.02986287 281.25516628 101.8772419 281.41679289 96.14892578 281.34057617 C95.27998184 281.34101425 94.4110379 281.34145233 93.51576233 281.34190369 C90.65871295 281.33982247 87.8022587 281.31652299 84.9453125 281.29296875 C82.95848918 281.28737042 80.97166171 281.28310144 78.98483276 281.28010559 C73.76676918 281.26867549 68.54895787 281.23922401 63.33099365 281.20599365 C58.00194714 281.17525325 52.6728597 281.16159177 47.34375 281.14648438 C36.89572277 281.11435263 26.4478824 281.0631784 16 281 C16.00394272 282.03386841 16.00394272 282.03386841 16.00796509 283.08862305 C16.01000946 283.99136963 16.01205383 284.89411621 16.01416016 285.82421875 C16.01810287 287.16746216 16.01810287 287.16746216 16.02212524 288.5378418 C15.94485028 297.13721247 13.30135452 304.22409654 8 311 C0.8675708 317.87201596 -6.92285542 320.59768721 -16.78857422 320.55297852 C-25.26453662 320.24768781 -32.65834714 316.9069712 -38.5 310.6875 C-44.10136539 303.21901281 -46.04274565 295.51214836 -46.015625 286.3046875 C-46.01336914 285.31194824 -46.01111328 284.31920898 -46.00878906 283.29638672 C-46.00443848 282.15967529 -46.00443848 282.15967529 -46 281 C-47.65251266 281.00999275 -47.65251266 281.00999275 -49.33840942 281.02018738 C-59.7261071 281.08103085 -70.11376857 281.12598824 -80.50160408 281.15543652 C-85.84196531 281.17108518 -91.18218256 281.19230905 -96.52246094 281.22631836 C-101.67716765 281.25894003 -106.83173595 281.27685903 -111.98653793 281.28463173 C-113.95210829 281.29017017 -115.91767117 281.30098541 -117.88318253 281.31719017 C-120.63859615 281.33900163 -123.39343956 281.34196536 -126.14892578 281.34057617 C-127.36489189 281.35675491 -127.36489189 281.35675491 -128.60542297 281.3732605 C-133.45416188 281.34684924 -136.82620162 280.73855645 -141 278 C-145.06260858 270.86243185 -144.66365303 263.32979435 -144.5 255.375 C-144.48612244 254.65113098 -144.47224487 253.92726196 -144.45794678 253.18145752 C-144.02512349 238.31705738 -144.02512349 238.31705738 -138.83056641 232.82617188 C-136.55076901 230.88641869 -134.19380747 229.10251907 -131.75 227.375 C-128.69419098 224.9740072 -126.45432105 221.96075429 -124.125 218.875 C-123.67237793 218.28444824 -123.21975586 217.69389648 -122.75341797 217.08544922 C-107.29386327 196.65328969 -98.67341943 175.07880395 -98.76171875 149.3984375 C-98.74629517 146.7773386 -98.72999125 144.15624475 -98.71289062 141.53515625 C-98.69430989 137.46104729 -98.68599208 133.38713226 -98.69458008 129.31298828 C-98.73655812 100.54748916 -93.90217687 78.57667019 -73.51171875 57.41796875 C-65.426552 49.6202746 -55.6139764 42.87430317 -45 39 C-44.99589111 38.41621582 -44.99178223 37.83243164 -44.98754883 37.23095703 C-44.7012048 14.02563685 -44.7012048 14.02563685 -35.6875 4.125 C-25.26064659 -5.52780753 -12.44579607 -6.23208991 0 0 Z " fill="#FEDF7D" transform="translate(271,192)"/>
<path d="M0 0 C6.01186215 3.8211836 9.47725615 7.88558711 11.22265625 14.8671875 C11.22265625 24.4371875 11.22265625 34.0071875 11.22265625 43.8671875 C32.34265625 43.8671875 53.46265625 43.8671875 75.22265625 43.8671875 C75.22265625 35.2871875 75.22265625 26.7071875 75.22265625 17.8671875 C78.60529925 6.59171084 78.60529925 6.59171084 82.72265625 3.3046875 C83.49609375 2.66402344 84.26953125 2.02335938 85.06640625 1.36328125 C90.41529534 -2.34799506 96.98230903 -1.55601731 103.22265625 -1.1328125 C109.75426715 1.08326977 114.10697798 5.79161486 117.22265625 11.8671875 C119.81096582 22.22042576 118.22265625 33.19531377 118.22265625 43.8671875 C139.34265625 43.8671875 160.46265625 43.8671875 182.22265625 43.8671875 C182.22265625 34.6271875 182.22265625 25.3871875 182.22265625 15.8671875 C185.20117212 7.92447851 187.06777322 3.12048121 194.74609375 -0.40234375 C200.85416836 -2.20393673 208.37365724 -2.54071532 214.16015625 0.4296875 C221.57821153 6.33385395 223.0292532 8.99687376 225.22265625 18.8671875 C225.22265625 27.1171875 225.22265625 35.3671875 225.22265625 43.8671875 C246.34265625 43.8671875 267.46265625 43.8671875 289.22265625 43.8671875 C289.22265625 33.9671875 289.22265625 24.0671875 289.22265625 13.8671875 C292.85526842 6.60196316 295.67018883 1.89081519 303.22265625 -1.1328125 C310.67188328 -2.00433537 317.52105995 -2.22723918 323.67578125 2.44140625 C328.31169661 6.71440905 331.01466508 10.82447799 331.44970703 17.1887207 C331.4392334 18.41937256 331.42875977 19.65002441 331.41796875 20.91796875 C331.41372391 21.90617867 331.41372391 21.90617867 331.40939331 22.91435242 C331.39826549 25.00298812 331.37317573 27.09118306 331.34765625 29.1796875 C331.33761684 30.60220732 331.32849267 32.0247339 331.3203125 33.44726562 C331.29835072 36.92071431 331.26387271 40.39390783 331.22265625 43.8671875 C332.37266113 43.85147705 333.52266602 43.8357666 334.70751953 43.81958008 C338.99016262 43.76511882 343.27277531 43.73077864 347.55566406 43.70239258 C349.40630244 43.68734279 351.25690536 43.66689817 353.10742188 43.64086914 C355.7735267 43.6043177 358.43915833 43.58742296 361.10546875 43.57421875 C361.92757843 43.55873489 362.74968811 43.54325104 363.59671021 43.52729797 C368.54443322 43.5258613 371.95637134 44.08020203 376.22265625 46.8671875 C388.98611906 66.01238172 378.22265625 92.85752769 378.22265625 115.8671875 C227.74265625 115.8671875 77.26265625 115.8671875 -77.77734375 115.8671875 C-77.77734375 49.8671875 -77.77734375 49.8671875 -72.77734375 44.8671875 C-68.82970105 43.5513066 -65.06645019 43.74418477 -60.953125 43.76953125 C-59.66102364 43.77165367 -59.66102364 43.77165367 -58.34281921 43.77381897 C-55.59179206 43.7794161 -52.84084631 43.79196804 -50.08984375 43.8046875 C-48.22461055 43.80970287 -46.35937608 43.81426571 -44.49414062 43.81835938 C-39.92184364 43.82938458 -35.3496075 43.84664723 -30.77734375 43.8671875 C-30.79829102 43.00029297 -30.81923828 42.13339844 -30.84082031 41.24023438 C-30.90943937 37.9899496 -30.95935826 34.74003693 -30.99707031 31.48925781 C-31.01705005 30.08874277 -31.04424395 28.68830968 -31.07910156 27.28808594 C-31.27376879 19.26092544 -31.41047977 12.71689579 -26.77734375 5.8671875 C-19.62804661 -1.56412844 -9.79960093 -3.99702429 0 0 Z " fill="#EA5468" transform="translate(105.77734375,1.1328125)"/>
<path d="M0 0 C150.48 0 300.96 0 456 0 C456 9.24 456 18.48 456 28 C450.28163902 33.71836098 449.29372344 34.1011665 441.75308582 34.1367898 C441.05911112 34.13502033 440.36513642 34.13325086 439.65013218 34.13142776 C438.90413036 34.1334804 438.15812855 34.13553303 437.38952062 34.13764787 C434.8758393 34.14332738 432.36221262 34.14185945 429.848526 34.14044189 C428.03372444 34.14302497 426.21892345 34.14603797 424.40412325 34.1494453 C419.40611839 34.15752504 414.40812788 34.15930541 409.41011727 34.16004276 C404.0242163 34.16189158 398.6383228 34.16943794 393.25242615 34.17617798 C381.47171228 34.18976776 369.69100182 34.19578675 357.91028142 34.20018864 C350.55855375 34.20294942 343.20682741 34.20718642 335.85510063 34.21169281 C315.51137023 34.22388528 295.16764088 34.23418531 274.8239069 34.2375679 C273.52155624 34.23778747 272.21920558 34.23800703 270.87738976 34.23823325 C269.57188234 34.23845153 268.26637492 34.23866981 266.92130667 34.2388947 C264.27574416 34.23933817 261.63018165 34.23978473 258.98461914 34.24023438 C257.6723222 34.2404558 256.36002526 34.24067723 255.00796174 34.24090537 C233.7302395 34.24485585 212.45255145 34.26231757 191.17484242 34.2855939 C169.34398071 34.3092832 147.51313618 34.32176861 125.68226141 34.32293582 C113.41902043 34.32385383 101.15582402 34.32963806 88.89259529 34.34775543 C78.45329578 34.36312362 68.01405463 34.36829626 57.57474596 34.36001733 C52.24557853 34.35609944 46.91652874 34.3570958 41.58737564 34.37107468 C36.71257375 34.38374524 31.8379787 34.38267672 26.96317738 34.37048396 C25.19605755 34.36851506 23.42892342 34.37165999 21.66182376 34.38032833 C19.26619818 34.39133943 16.87131319 34.38399127 14.47570896 34.3719368 C13.78407543 34.37953199 13.09244189 34.38712718 12.37984976 34.39495254 C8.0877897 34.34808785 5.408135 33.62864295 2 31 C-3.74381868 22.38427198 0 10.35481638 0 0 Z " fill="#9FD3FD" transform="translate(28,117)"/>
<path d="M0 0 C0.21835177 4.57085588 0.41493341 9.14195953 0.59204102 13.71459961 C0.65518096 15.26758378 0.72409887 16.82034486 0.79907227 18.37280273 C0.90627905 20.61407214 0.99216551 22.85534156 1.07421875 25.09765625 C1.1302552 26.12621483 1.1302552 26.12621483 1.18742371 27.17555237 C1.33975985 32.1424079 0.51254958 35.70987325 -2 40 C-6.97111739 43.25431183 -11.12222416 43.41679999 -16.85107422 43.34057617 C-17.72001816 43.34101425 -18.5889621 43.34145233 -19.48423767 43.34190369 C-22.34128705 43.33982247 -25.1977413 43.31652299 -28.0546875 43.29296875 C-30.04151082 43.28737042 -32.02833829 43.28310144 -34.01516724 43.28010559 C-39.23323082 43.26867549 -44.45104213 43.23922401 -49.66900635 43.20599365 C-54.99805286 43.17525325 -60.3271403 43.16159177 -65.65625 43.14648438 C-76.10427723 43.11435263 -86.5521176 43.0631784 -97 43 C-96.99605728 44.03386841 -96.99605728 44.03386841 -96.99203491 45.08862305 C-96.98999054 45.99136963 -96.98794617 46.89411621 -96.98583984 47.82421875 C-96.98189713 49.16746216 -96.98189713 49.16746216 -96.97787476 50.5378418 C-97.05514972 59.13721247 -99.69864548 66.22409654 -105 73 C-112.1324292 79.87201596 -119.92285542 82.59768721 -129.78857422 82.55297852 C-138.26453662 82.24768781 -145.65834714 78.9069712 -151.5 72.6875 C-157.10136539 65.21901281 -159.04274565 57.51214836 -159.015625 48.3046875 C-159.01336914 47.31194824 -159.01111328 46.31920898 -159.00878906 45.29638672 C-159.00443848 44.15967529 -159.00443848 44.15967529 -159 43 C-160.65251266 43.00999275 -160.65251266 43.00999275 -162.33840942 43.02018738 C-172.7261071 43.08103085 -183.11376857 43.12598824 -193.50160408 43.15543652 C-198.84196531 43.17108518 -204.18218256 43.19230905 -209.52246094 43.22631836 C-214.67716765 43.25894003 -219.83173595 43.27685903 -224.98653793 43.28463173 C-226.95210829 43.29017017 -228.91767117 43.30098541 -230.88318253 43.31719017 C-233.63859615 43.33900163 -236.39343956 43.34196536 -239.14892578 43.34057617 C-239.95956985 43.351362 -240.77021393 43.36214783 -241.60542297 43.3732605 C-246.42441554 43.34701127 -249.9737288 42.92873787 -254 40 C-256.72402428 34.84810172 -257.33539797 31.22855402 -257.07421875 25.31640625 C-257.04777786 24.61603745 -257.02133698 23.91566864 -256.99409485 23.19407654 C-256.90713502 20.98260279 -256.79771972 18.7729239 -256.6875 16.5625 C-256.62415692 15.05279632 -256.56229386 13.54302978 -256.50195312 12.03320312 C-256.35172921 8.35458636 -256.18136799 4.6772281 -256 1 C-223.53152889 0.87258329 -191.0630577 0.74518651 -158.59458641 0.61781773 C-154.76545018 0.6027966 -150.93631396 0.58777531 -147.10717773 0.57275391 C-146.34483328 0.56976329 -145.58248882 0.56677268 -144.79704302 0.56369144 C-132.43695322 0.51520341 -120.07686348 0.46670154 -107.71677376 0.41819459 C-95.04367992 0.36845957 -82.37058602 0.31873934 -69.69749206 0.26903296 C-61.87118767 0.23833617 -54.04488333 0.20762772 -46.21857905 0.17690456 C-40.22754468 0.15338722 -34.23651024 0.1298904 -28.24547577 0.10640144 C-25.78029566 0.09673299 -23.31511558 0.08705774 -20.84993553 0.07737541 C-17.50030397 0.06422027 -14.15067232 0.05108891 -10.80104065 0.03796387 C-9.81176168 0.03407292 -8.8224827 0.03018197 -7.80322558 0.02617311 C-6.91296866 0.02268972 -6.02271174 0.01920632 -5.10547733 0.01561737 C-4.33122758 0.01257961 -3.55697783 0.00954185 -2.75926596 0.00641203 C-1.83951427 0.00305979 -0.9197578 0 0 0 Z " fill="#FAEFAF" transform="translate(384,430)"/>
<path d="M0 0 C1.68405062 1.48045644 3.35226823 2.97922461 5 4.5 C5.70382812 5.11230469 6.40765625 5.72460938 7.1328125 6.35546875 C21.30366352 19.38709449 30.15417302 39.56420673 32 58.5 C32.16246262 62.64652169 32.18447572 66.79207083 32.2109375 70.94140625 C32.23901864 73.40690754 32.26768318 75.87240224 32.296875 78.33789062 C32.33797563 82.1927869 32.37489743 86.04756186 32.40136719 89.90258789 C32.68250786 127.65057102 43.73513457 153.61975229 69.46875 180.7578125 C71.48494279 182.94202135 73.24731338 185.11142235 75 187.5 C69.64762694 187.77435277 64.29943655 187.97258946 58.94165039 188.10424805 C57.12451833 188.15917598 55.30786366 188.23395602 53.49243164 188.32983398 C37.62158911 189.14629824 37.62158911 189.14629824 32.4440918 185.18920898 C29.60066038 182.56778672 27.29617462 179.60954489 25 176.5 C23.48517744 174.72402215 21.96520267 172.95241056 20.4375 171.1875 C18.94317913 169.30358833 17.46463758 167.40708018 16 165.5 C15.59394531 164.97567383 15.18789063 164.45134766 14.76953125 163.91113281 C-0.11013479 144.53322927 -8.25915796 123.73637423 -8.30859375 99.11328125 C-8.33375968 96.76887779 -8.35915762 94.4244768 -8.38476562 92.08007812 C-8.41337494 88.45158574 -8.43744473 84.82313637 -8.45629883 81.19458008 C-8.55744102 54.04822812 -8.55744102 54.04822812 -17 28.5 C-17.49242187 27.51644531 -17.98484375 26.53289062 -18.4921875 25.51953125 C-28.95414577 6.17241703 -47.22080062 -7.71495531 -68 -14.5 C-67.67 -15.16 -67.34 -15.82 -67 -16.5 C-43.71132839 -21.039817 -18.51541334 -14.71087635 0 0 Z " fill="#FEC251" transform="translate(308,243.5)"/>
<path d="M0 0 C5.44430582 -0.07437576 10.88831329 -0.12870866 16.33300781 -0.16479492 C18.18364619 -0.17984471 20.03424911 -0.20028933 21.88476562 -0.22631836 C24.55087045 -0.2628698 27.21650208 -0.27976454 29.8828125 -0.29296875 C31.11597702 -0.31619453 31.11597702 -0.31619453 32.37405396 -0.33988953 C37.32177697 -0.3413262 40.73371509 0.21301453 45 3 C47.39010685 6.58516028 47.24326602 8.14266967 47.22705078 12.39916992 C47.22729185 13.05373578 47.22753292 13.70830164 47.2277813 14.38270283 C47.22629007 16.4987637 47.21106649 18.61447101 47.1953125 20.73046875 C47.19329834 22.02488892 47.19128418 23.31930908 47.18920898 24.6529541 C47.17872866 29.49783867 47.15080619 34.34267282 47.125 39.1875 C47.08375 50.015625 47.0425 60.84375 47 72 C8.72 72 -29.56 72 -69 72 C-69.33 64.41 -69.66 56.82 -70 49 C-72.30268584 33.76684754 -75.77026351 19.39990879 -82.71484375 5.58984375 C-84 3 -84 3 -84 1 C-69.81 1 -55.62 1 -41 1 C-40.8125 13 -40.8125 13 -40.79223633 16.734375 C-40.56770786 24.68101002 -39.10552967 29.99306147 -33.35302734 35.60742188 C-28.85201553 39.49355696 -23.82959364 40.31980529 -18 40 C-12.94493343 38.91677145 -8.57244735 36.77091665 -5 33 C-0.79502555 26.07659029 -0.35534212 19.38125375 -0.25 11.4375 C-0.22035156 10.33341797 -0.19070313 9.22933594 -0.16015625 8.09179688 C-0.09009557 5.39446071 -0.03708532 2.69795673 0 0 Z " fill="#E5384F" transform="translate(437,45)"/>
<path d="M0 0 C38.61 0 77.22 0 117 0 C117 9.24 117 18.48 117 28 C111.14778866 33.85221134 111.14778866 33.85221134 105.71181107 34.10743046 C104.86744869 34.09913432 104.02308632 34.09083818 103.15313721 34.08229065 C101.69344765 34.07173141 101.69344765 34.07173141 100.20426941 34.06095886 C98.61283867 34.04153984 98.61283867 34.04153984 96.98925781 34.02172852 C95.30589073 34.0073172 95.30589073 34.0073172 93.58851624 33.99261475 C89.87665551 33.95961642 86.16491216 33.919287 82.453125 33.87890625 C79.88051773 33.85460596 77.3079061 33.83076236 74.73529053 33.80735779 C68.65445881 33.75093283 62.57368931 33.68989971 56.49292541 33.62663645 C49.56918156 33.55485993 42.64538563 33.48896637 35.72157907 33.42356598 C21.48098547 33.28892147 7.24047227 33.14689222 -7 33 C-6.66226562 31.87464844 -6.32453125 30.74929687 -5.9765625 29.58984375 C-5.52547413 28.03922749 -5.07498644 26.4884364 -4.625 24.9375 C-4.29242188 23.83825195 -4.29242188 23.83825195 -3.953125 22.71679688 C-1.7543918 15.053565 -1.09106588 8.18299407 0 0 Z " fill="#85BEEF" transform="translate(367,117)"/>
<path d="M0 0 C5.68440341 4.12119247 10.09312515 8.79363177 11.5 15.8125 C11.59886072 17.44939459 11.64804078 19.08966722 11.66113281 20.72949219 C11.67074036 21.70440613 11.6803479 22.67932007 11.69024658 23.68377686 C11.69449646 24.73172424 11.69874634 25.77967163 11.703125 26.859375 C11.70882507 27.94454407 11.71452515 29.02971313 11.72039795 30.14776611 C11.72984084 32.44420397 11.73637911 34.74065534 11.74023438 37.03710938 C11.74992493 40.53539944 11.78094959 44.03309814 11.8125 47.53125 C11.81903196 49.76562152 11.82428167 51.99999724 11.828125 54.234375 C11.8404718 55.27422546 11.8528186 56.31407593 11.86553955 57.38543701 C11.83755687 66.59323992 9.84681682 73.26612156 3.45703125 80.11328125 C-0.59733638 83.63354057 -4.70994457 84.58467476 -9.9375 85.25 C-17.36548464 84.33779136 -22.59428356 81.4802031 -27.30859375 75.69140625 C-29.74619527 71.84718876 -30.74790281 68.29461358 -30.9140625 63.76953125 C-30.95305664 62.79056885 -30.99205078 61.81160645 -31.03222656 60.80297852 C-31.0628418 59.75424561 -31.09345703 58.7055127 -31.125 57.625 C-31.16077148 56.5330835 -31.19654297 55.44116699 -31.23339844 54.31616211 C-31.33819656 50.81515618 -31.42220568 47.31420487 -31.5 43.8125 C-31.52868164 42.64009766 -31.55736328 41.46769531 -31.58691406 40.25976562 C-31.66266737 36.79812692 -31.71148346 33.33723703 -31.75 29.875 C-31.77143066 28.81708252 -31.79286133 27.75916504 -31.81494141 26.66918945 C-31.84828249 18.90133495 -31.35213486 11.37250167 -26.34375 5.12109375 C-25.5703125 4.50363281 -24.796875 3.88617187 -24 3.25 C-23.2265625 2.60933594 -22.453125 1.96867188 -21.65625 1.30859375 C-15.7113139 -2.81624416 -6.60352413 -2.2404814 0 0 Z " fill="#FEC151" transform="translate(212.5,1.1875)"/>
<path d="M0 0 C5.01555845 3.18792567 8.98703163 6.92773765 10.80633545 12.72808838 C11.28384526 15.18158291 11.36462494 17.46767535 11.38378906 19.96777344 C11.39339661 20.98272888 11.40300415 21.99768433 11.41290283 23.043396 C11.41715271 24.13509094 11.42140259 25.22678589 11.42578125 26.3515625 C11.43148132 27.48112366 11.4371814 28.61068481 11.4430542 29.7744751 C11.4524983 32.16507024 11.45903584 34.55567837 11.46289062 36.94628906 C11.4725824 40.58942612 11.50360655 44.23199564 11.53515625 47.875 C11.54168804 50.20051749 11.54693782 52.52603901 11.55078125 54.8515625 C11.56312805 55.93516052 11.57547485 57.01875854 11.5881958 58.13519287 C11.56369026 66.52579284 10.41910296 73.67074079 4.22265625 79.8671875 C-1.64347922 83.924141 -6.65862983 85.5560953 -13.77734375 84.8671875 C-21.74516932 82.27859124 -25.88940163 78.16963229 -29.77734375 70.8671875 C-31.04194006 68.33799488 -30.92496022 66.54957948 -30.9543457 63.71826172 C-30.96718094 62.64309296 -30.98001617 61.56792419 -30.99324036 60.46017456 C-31.00062729 59.29253571 -31.00801422 58.12489685 -31.015625 56.921875 C-31.02369675 55.72289581 -31.03176849 54.52391663 -31.04008484 53.28860474 C-31.0539379 50.74482677 -31.06465456 48.20103012 -31.07250977 45.65722656 C-31.08968105 41.77893404 -31.13355326 37.90150293 -31.17773438 34.0234375 C-31.18786474 31.5520896 -31.19637976 29.08073445 -31.203125 26.609375 C-31.22938713 24.8761348 -31.22938713 24.8761348 -31.25617981 23.10787964 C-31.23667738 15.81450962 -30.53528557 9.80318859 -25.32978821 4.3510437 C-18.19291809 -1.89586591 -8.9928759 -3.66798033 0 0 Z " fill="#FEC251" transform="translate(105.77734375,1.1328125)"/>
<path d="M0 0 C6.84661754 5.44934865 9.83218563 9.7147279 11.0625 18.4375 C11.30796785 22.27613956 11.29986111 26.0924183 11.25 29.9375 C11.2406543 31.01249756 11.23130859 32.08749512 11.22167969 33.19506836 C11.18301643 36.60957957 11.12373431 40.02332564 11.0625 43.4375 C11.04848145 44.58234863 11.03446289 45.72719727 11.02001953 46.90673828 C10.97369656 50.27207791 10.89806916 53.63545071 10.8125 57 C10.79856201 58.02738281 10.78462402 59.05476563 10.77026367 60.11328125 C10.52703631 67.41372336 9.11777676 72.82418182 4.3515625 78.4609375 C-1.42688441 83.15423006 -6.33598516 85.10429955 -13.9375 84.4375 C-20.74738692 82.24860778 -26.15082125 78.70817311 -29.59765625 72.3984375 C-31.4873511 67.65118566 -31.50944016 62.86698683 -31.625 57.8125 C-31.65625977 56.78576172 -31.68751953 55.75902344 -31.71972656 54.70117188 C-31.81265723 51.28009787 -31.8773129 47.85930018 -31.9375 44.4375 C-31.96473145 43.17583008 -31.99196289 41.91416016 -32.02001953 40.61425781 C-32.09712795 36.72198007 -32.14722262 32.83032077 -32.1875 28.9375 C-32.20901123 27.71595215 -32.23052246 26.4944043 -32.25268555 25.23583984 C-32.28207289 17.24802819 -31.48293486 11.58561607 -27.25 4.6875 C-20.21476226 -2.15759618 -9.0757786 -4.65889968 0 0 Z " fill="#FEC251" transform="translate(319.9375,1.5625)"/>
<path d="M0 0 C5.68019274 3.40811565 9.29518499 7.77685863 11.4453125 14.0546875 C11.71946716 16.63871765 11.71946716 16.63871765 11.75170898 19.4206543 C11.76769638 20.46912033 11.78368378 21.51758636 11.80015564 22.5978241 C11.80551834 23.72183121 11.81088104 24.84583832 11.81640625 26.00390625 C11.82994896 27.75559868 11.82994896 27.75559868 11.84376526 29.54267883 C11.8582621 32.01304566 11.86715308 34.48345083 11.87084961 36.95385742 C11.88271542 40.71144357 11.93188491 44.46737106 11.98242188 48.22460938 C11.99189022 50.63020036 11.99912328 53.03580139 12.00390625 55.44140625 C12.02343857 56.55529221 12.04297089 57.66917816 12.06309509 58.81681824 C12.02101813 66.18460947 10.76243409 71.96502001 6.4453125 78.0546875 C1.48189917 82.67823852 -3.39507881 84.94500848 -10.20703125 85.21875 C-16.75524486 84.76113773 -22.30406817 80.88398026 -26.5546875 76.0546875 C-30.14166368 70.6193636 -30.1053173 65.42366848 -30.2421875 59.1171875 C-30.27272217 58.04412354 -30.30325684 56.97105957 -30.3347168 55.86547852 C-30.42633559 52.26206252 -30.49061218 48.65869227 -30.5546875 45.0546875 C-30.58673498 43.69757129 -30.61963259 42.34047492 -30.65332031 40.98339844 C-30.73762072 37.50233401 -30.79669876 34.02158749 -30.83877563 30.5397644 C-30.86664964 28.5309501 -30.912035 26.5224032 -30.95776367 24.51391602 C-31.00470374 16.70823659 -30.7805132 10.46006269 -25.10668945 4.54516602 C-18.05137218 -1.66222576 -8.98660214 -3.32531761 0 0 Z " fill="#FEC150" transform="translate(425.5546875,0.9453125)"/>
<path d="M0 0 C21.29095769 4.98790332 40.68540456 21.38474532 52.1875 39.5 C65.90682918 62.92796737 70.67522226 88.25294514 64.88671875 114.8984375 C62.10768072 124.34487952 62.10768072 124.34487952 57.9375 127.125 C54.5 127.5625 54.5 127.5625 50.9375 127.125 C48.4375 125.1875 48.4375 125.1875 46.9375 122.125 C46.77915959 118.40400027 47.4757741 114.87086494 48.42504883 111.28149414 C52.51468419 95.09127328 51.67789588 76.41460686 44.9375 61.125 C44.68049316 60.51914063 44.42348633 59.91328125 44.15869141 59.2890625 C35.95583478 40.19438337 21.05929374 25.79536602 1.92578125 17.87890625 C0.27048517 17.25786816 -1.39501665 16.66252393 -3.07421875 16.109375 C-5.58440294 14.8666119 -6.61683732 13.50161573 -8.0625 11.125 C-8.75733656 7.04283522 -8.39918511 5.60452121 -6 2.1875 C-3.0625 0.125 -3.0625 0.125 0 0 Z " fill="#3A617F" transform="translate(356.0625,183.875)"/>
<path d="M0 0 C3.31425883 2.50410667 4.82282404 3.91479724 5.5 8.0625 C4.93559632 11.37837164 4.25858779 12.55116399 2 15 C-0.49609375 16.23828125 -0.49609375 16.23828125 -3.4375 17.3125 C-25.17097026 25.96927335 -39.86529491 41.5231433 -49.15429688 62.87207031 C-55.65575388 79.23081721 -55.16169681 95.22598163 -50.875 112.0390625 C-50.05988782 115.43306982 -49.65964359 118.49329756 -50 122 C-52.48602449 125.36344489 -53.91425523 126.80057749 -58.0625 127.5625 C-61.81916601 126.84313842 -62.78847511 126.12663863 -65 123 C-73.25124074 104.50186959 -72.41167356 79.87881659 -66 61 C-64.2401756 56.52134577 -62.22657257 52.26341215 -60 48 C-59.30583984 46.58460938 -59.30583984 46.58460938 -58.59765625 45.140625 C-54.94643575 37.97978259 -50.32841798 31.99675906 -45 26 C-44.37351562 25.28972656 -43.74703125 24.57945312 -43.1015625 23.84765625 C-34.45970407 14.64061299 -13.58768513 -1.94109788 0 0 Z " fill="#3A607F" transform="translate(159,184)"/>
<path d="M0 0 C1.19794189 -0.00315216 2.39588379 -0.00630432 3.63012695 -0.009552 C4.93425537 -0.00752777 6.23838379 -0.00550354 7.58203125 -0.00341797 C8.9234214 -0.00409107 10.26481144 -0.00506115 11.60620117 -0.00631714 C14.42074746 -0.00779382 17.23526207 -0.00564051 20.04980469 -0.00097656 C23.66493756 0.00472073 27.2799962 0.00144156 30.89512634 -0.00454903 C33.66598067 -0.00815544 36.43681727 -0.00701569 39.20767212 -0.00442123 C41.19142708 -0.0034258 43.17518272 -0.00647288 45.15893555 -0.009552 C46.35687744 -0.00639984 47.55481934 -0.00324768 48.7890625 0 C49.84971924 0.00079559 50.91037598 0.00159119 52.00317383 0.00241089 C54.39453125 0.12939453 54.39453125 0.12939453 55.39453125 1.12939453 C56.3608022 12.25274617 54.34668726 22.24352625 47.39453125 31.12939453 C40.26210205 38.00141049 32.47167583 40.72708174 22.60595703 40.68237305 C14.12999463 40.37708234 6.73618411 37.03636573 0.89453125 30.81689453 C-5.84024281 21.83719578 -7.2415701 12.11149727 -6.60546875 1.12939453 C-4.85028769 -0.62578653 -2.3819716 0.0017867 0 0 Z " fill="#FEDF7C" transform="translate(231.60546875,471.87060546875)"/>
<path d="M0 0 C8.08267163 5.42046739 12.83261929 12.56608843 15 22 C15.21714467 24.98658484 15.19166614 27.94521593 15.125 30.9375 C15.11597656 31.71673828 15.10695313 32.49597656 15.09765625 33.29882812 C15.07433691 35.19935447 15.03847586 37.09972008 15 39 C10.44163714 38.40867585 6.08036788 37.55403893 1.625 36.4375 C-13.7171471 33.08089364 -28.9923098 34.96239807 -44 39 C-45.09947392 14.48680615 -45.09947392 14.48680615 -35.6875 4.125 C-25.26064659 -5.52780753 -12.44579607 -6.23208991 0 0 Z " fill="#FAEFAF" transform="translate(271,192)"/>
<path d="M0 0 C0.21835177 4.57085588 0.41493341 9.14195953 0.59204102 13.71459961 C0.65518096 15.26758378 0.72409887 16.82034486 0.79907227 18.37280273 C0.90627905 20.61407214 0.99216551 22.85534156 1.07421875 25.09765625 C1.11157639 25.78336197 1.14893402 26.46906769 1.18742371 27.17555237 C1.33975985 32.1424079 0.51254958 35.70987325 -2 40 C-6.88063039 43.61608252 -11.73226328 43.39708935 -17.5546875 43.29296875 C-18.45623566 43.28872391 -19.35778381 43.28447906 -20.28665161 43.28010559 C-23.14974565 43.26339058 -26.01212079 43.22575192 -28.875 43.1875 C-30.82290646 43.17244387 -32.77082402 43.15875709 -34.71875 43.14648438 C-39.47944122 43.11351058 -44.23959896 43.06177813 -49 43 C-47 41 -47 41 -44.5 39.625 C-41.67759989 37.79043993 -41.13755657 37.1054464 -40 34 C-39.76494889 31.43207563 -39.62828472 28.96121582 -39.5859375 26.390625 C-39.56657135 25.66381531 -39.5472052 24.93700562 -39.5272522 24.18817139 C-39.46765729 21.87556552 -39.42115242 19.56290933 -39.375 17.25 C-39.33680164 15.67836418 -39.29774883 14.10674887 -39.2578125 12.53515625 C-39.16197257 8.69027158 -39.07786805 4.84528893 -39 1 C-33.60653108 0.85741796 -28.21305771 0.71500585 -22.81958008 0.57275391 C-20.98331581 0.52429851 -19.14705279 0.475796 -17.31079102 0.42724609 C-14.67724932 0.35762454 -12.04370326 0.28817033 -9.41015625 0.21875 C-8.58411392 0.19687622 -7.75807159 0.17500244 -6.90699768 0.15246582 C-1.11387171 0 -1.11387171 0 0 0 Z " fill="#FEE07E" transform="translate(384,430)"/>
<path d="M0 0 C16.42093422 5.10929997 28.85235909 16.39339964 36.94921875 31.43359375 C44.51087432 47.00302026 45.60882625 62.44613117 40.7890625 78.89453125 C39.43400635 81.98941257 38.14171213 83.67251401 35.5234375 85.78515625 C32.5859375 86.41015625 32.5859375 86.41015625 29.5234375 85.78515625 C25.81681289 82.63058212 25.81681289 82.63058212 24.5234375 79.78515625 C24.35363434 76.97518791 24.86276276 74.50650694 25.5234375 71.78515625 C28.40590924 59.53991133 27.18500273 47.06969963 21.015625 36.10546875 C14.67141274 26.3973486 6.72149281 20.48754796 -3.51171875 15.39794922 C-8.38547855 12.96732414 -8.38547855 12.96732414 -9.4765625 10.78515625 C-9.83061972 6.96133827 -9.97715147 4.6194712 -7.9765625 1.28515625 C-5.09660371 -0.44281902 -3.28866742 -0.62961477 0 0 Z " fill="#3A617F" transform="translate(347.4765625,215.21484375)"/>
<path d="M0 0 C2.875 1.5625 2.875 1.5625 5 4 C5.5625 7.5 5.5625 7.5 5 11 C2.21576601 14.39146831 -0.64799856 15.94034765 -4.625 17.6875 C-16.55372898 23.47729773 -24.91136366 32.53901522 -29.375 45 C-32.26805954 55.24625252 -32.09322294 65.85075043 -29 76 C-29.07870677 80.01404513 -29.47273219 81.44343953 -32.25 84.375 C-35.27540925 86.16274183 -36.56933155 86.70372686 -40 86 C-45.12971664 82.52989757 -46.20086263 76.35193729 -47.5625 70.640625 C-50.28061128 54.2348819 -46.18238578 37.72847854 -37 24 C-34.20472534 20.4329327 -31.2231202 17.18239486 -28 14 C-27.47148437 13.44957031 -26.94296875 12.89914063 -26.3984375 12.33203125 C-22.56602141 8.66666919 -18.0516456 6.17154394 -13.4375 3.625 C-12.79989746 3.26647949 -12.16229492 2.90795898 -11.50537109 2.53857422 C-7.50471978 0.41643552 -4.51857242 -0.53962807 0 0 Z " fill="#3A617F" transform="translate(169,215)"/>
<path d="M0 0 C2.60152269 1.30076135 2.6968513 2.3937026 4 5 C5.26114823 6.79754569 6.56081332 8.56025276 7.87890625 10.31640625 C10.00758168 13.51312788 10.13674657 16.35458614 10.17700195 20.07885742 C10.18983719 21.11390915 10.20267242 22.14896088 10.21589661 23.21537781 C10.22328354 24.33410782 10.23067047 25.45283783 10.23828125 26.60546875 C10.246353 27.7586409 10.25442474 28.91181305 10.26274109 30.09992981 C10.27658069 32.54357399 10.28730339 34.98723749 10.29516602 37.4309082 C10.31235228 41.15548721 10.3562382 44.87917255 10.40039062 48.60351562 C10.41052004 50.97916015 10.41903537 53.35481221 10.42578125 55.73046875 C10.44328934 56.83907761 10.46079742 57.94768646 10.47883606 59.08988953 C10.45559465 67.43779621 8.73481032 72.56395626 3.5625 79.0625 C1 81 1 81 -1.4375 81.3125 C-6.23709207 78.85417236 -9.32049306 74.03852083 -11 69 C-11.14893781 67.38754012 -11.2479351 65.77021922 -11.31640625 64.15234375 C-11.37973145 62.67423218 -11.37973145 62.67423218 -11.44433594 61.16625977 C-11.82370621 50.8002023 -12.1412073 40.43532159 -12.25 30.0625 C-12.28202515 28.47586548 -12.28202515 28.47586548 -12.31469727 26.85717773 C-12.34881859 19.05083997 -11.88604792 11.47920802 -6.73828125 5.2734375 C-5.93777344 4.64695312 -5.13726562 4.02046875 -4.3125 3.375 C-3.50425781 2.72273437 -2.69601563 2.07046875 -1.86328125 1.3984375 C-1.24839844 0.93695313 -0.63351563 0.47546875 0 0 Z " fill="#FEDF7C" transform="translate(193,1)"/>
<path d="M0 0 C5.04951071 2.28430246 8.50065428 7.14745771 10.625 12.1875 C10.89242554 14.70269775 10.89242554 14.70269775 10.91552734 17.56347656 C10.9346669 19.17600311 10.9346669 19.17600311 10.95419312 20.82110596 C10.95641876 21.97842224 10.95864441 23.13573853 10.9609375 24.328125 C10.9675943 25.52427429 10.9742511 26.72042358 10.98110962 27.95281982 C10.99123593 30.48464419 10.99592665 33.01649525 10.99560547 35.54833984 C10.99996777 39.40898072 11.03626016 43.26846845 11.07421875 47.12890625 C11.08008913 49.59114193 11.08405704 52.05338304 11.0859375 54.515625 C11.10030853 55.66484436 11.11467957 56.81406372 11.12948608 57.99810791 C11.08344627 66.13592734 9.97373752 71.66703235 4.1875 77.75 C1.625 79.1875 1.625 79.1875 -0.83203125 79.0546875 C-4.08671153 77.94479653 -4.85834617 76.65568064 -6.625 73.75 C-7.12515625 72.94691406 -7.6253125 72.14382812 -8.140625 71.31640625 C-10.11487936 67.91144225 -10.51104492 65.98482079 -10.55200195 62.03857422 C-10.56483719 60.96340546 -10.57767242 59.88823669 -10.59089661 58.78048706 C-10.59828354 57.61284821 -10.60567047 56.44520935 -10.61328125 55.2421875 C-10.621353 54.04320831 -10.62942474 52.84422913 -10.63774109 51.60891724 C-10.65159415 49.06513927 -10.66231081 46.52134262 -10.67016602 43.97753906 C-10.6873373 40.09924654 -10.73120951 36.22181543 -10.77539062 32.34375 C-10.78552099 29.8724021 -10.79403601 27.40104695 -10.80078125 24.9296875 C-10.82704338 23.1964473 -10.82704338 23.1964473 -10.85383606 21.42819214 C-10.83189951 13.22452631 -9.44523991 8.24813988 -4.4375 1.625 C-2.375 0.1875 -2.375 0.1875 0 0 Z " fill="#FEDF7C" transform="translate(85.375,2.8125)"/>
<path d="M0 0 C4.7769834 2.32024908 7.35254203 5.51968651 10 10 C11.00200116 13.00600347 11.13809646 15.04372633 11.16113281 18.18652344 C11.17074036 19.24482361 11.1803479 20.30312378 11.19024658 21.39349365 C11.19449646 22.5372345 11.19874634 23.68097534 11.203125 24.859375 C11.20882507 26.03711487 11.21452515 27.21485474 11.22039795 28.42828369 C11.22985108 30.92320863 11.23638317 33.41814607 11.24023438 35.91308594 C11.249926 39.72092643 11.28094164 43.52822404 11.3125 47.3359375 C11.31903152 49.76041346 11.32428141 52.18489329 11.328125 54.609375 C11.3404718 55.74501892 11.3528186 56.88066284 11.36553955 58.05072021 C11.3390363 67.50811302 9.33837848 72.97639142 3 80 C-0.87554506 79.77854028 -1.9399318 79.06286207 -4.6875 76.1875 C-7.68435826 72.05669537 -9.22009359 69.34876127 -9.4140625 64.23046875 C-9.45313721 63.27390381 -9.49221191 62.31733887 -9.5324707 61.33178711 C-9.57827271 59.77536499 -9.57827271 59.77536499 -9.625 58.1875 C-9.67756958 56.5643689 -9.67756958 56.5643689 -9.73120117 54.90844727 C-9.83730115 51.27253194 -9.92055988 47.63659202 -10 44 C-10.03419414 42.63997022 -10.06853985 41.27994425 -10.10302734 39.91992188 C-10.1874909 36.44111723 -10.2449968 32.96265132 -10.28509521 29.48306274 C-10.31199657 27.47507743 -10.35724008 25.46736469 -10.40283203 23.4597168 C-10.44731438 16.14047761 -10.09198752 11.15628175 -6 5 C-4.08952696 3.10067701 -2.18995385 1.59269371 0 0 Z " fill="#FEDF7C" transform="translate(405,2)"/>
<path d="M0 0 C5.35004529 2.98607179 8.60764964 6.28776365 11 12 C11.69589004 16.25900722 11.67820675 20.44196355 11.62890625 24.75 C11.63131821 25.96268555 11.63373016 27.17537109 11.63621521 28.42480469 C11.63523898 30.97985109 11.62189944 33.53491923 11.59692383 36.08984375 C11.56260816 39.98771444 11.57628229 43.88331692 11.59570312 47.78125 C11.58880428 50.27084293 11.57913155 52.76043004 11.56640625 55.25 C11.57136612 56.40854492 11.57632599 57.56708984 11.58143616 58.76074219 C11.46336116 66.92304716 10.04614259 71.97123077 5.0625 78.5625 C3 80 3 80 0.5625 80.125 C-3.66245143 78.27014328 -5.94764087 74.94853776 -8.10546875 70.953125 C-9.45186347 66.50825859 -9.48193856 62.12314352 -9.625 57.5 C-9.67865723 55.94635742 -9.67865723 55.94635742 -9.73339844 54.36132812 C-9.84074711 50.90776806 -9.9243767 47.45439783 -10 44 C-10.02868164 42.73542969 -10.05736328 41.47085938 -10.08691406 40.16796875 C-10.16349944 36.27859469 -10.21193131 32.38992828 -10.25 28.5 C-10.27143066 27.27861328 -10.29286133 26.05722656 -10.31494141 24.79882812 C-10.34878542 15.76874279 -9.44140587 8.84399374 -3 2 C-2.01 1.34 -1.02 0.68 0 0 Z " fill="#FEDF7C" transform="translate(298,2)"/>
<path d="M0 0 C3.64581687 -0.02887512 7.29160463 -0.04675585 10.9375 -0.0625 C12.49887695 -0.07506836 12.49887695 -0.07506836 14.09179688 -0.08789062 C15.08115234 -0.09111328 16.07050781 -0.09433594 17.08984375 -0.09765625 C18.46450806 -0.10551147 18.46450806 -0.10551147 19.86694336 -0.11352539 C22 0 22 0 23 1 C23.96627095 12.12335164 21.95215601 22.11413172 15 31 C9.07371753 36.70990704 2.17302864 40.37512616 -6.15625 40.3125 C-6.8471875 40.291875 -7.538125 40.27125 -8.25 40.25 C-9.30960938 40.24226562 -9.30960938 40.24226562 -10.390625 40.234375 C-13.50989581 40.18711332 -16.02305287 39.99231571 -19 39 C-19 38.34 -19 37.68 -19 37 C-17.948125 36.443125 -16.89625 35.88625 -15.8125 35.3125 C-7.7639815 30.63237556 -3.88852536 23.66557608 -1 15 C-0.77281504 12.43365139 -0.58391816 9.88321893 -0.4375 7.3125 C-0.39431641 6.61060547 -0.35113281 5.90871094 -0.30664062 5.18554688 C-0.2008264 3.45724794 -0.09993419 1.7286489 0 0 Z " fill="#FEC351" transform="translate(264,472)"/>
<path d="M0 0 C8.08267163 5.42046739 12.83261929 12.56608843 15 22 C15.21714467 24.98658484 15.19166614 27.94521593 15.125 30.9375 C15.11597656 31.71673828 15.10695313 32.49597656 15.09765625 33.29882812 C15.07433691 35.19935447 15.03847586 37.09972008 15 39 C10.9782555 38.45359408 7.01767948 37.85023373 3.0625 36.9375 C2.29035156 36.76089844 1.51820313 36.58429688 0.72265625 36.40234375 C0.15417969 36.26957031 -0.41429687 36.13679688 -1 36 C-1.07476562 35.32195312 -1.14953125 34.64390625 -1.2265625 33.9453125 C-2.51022078 24.85902543 -5.55954011 17.4091077 -12.875 11.5625 C-19.91084435 6.84528618 -26.62100949 5.49793181 -35 5 C-25.73748445 -6.11501866 -12.18434081 -6.10116918 0 0 Z " fill="#FEE07F" transform="translate(271,192)"/>
</svg>
